# Blender v2.83.3 OBJ File: 'All Panels.blend'
# www.blender.org
mtllib Fuel Panel.mtl
o Fuel_Panel_Cube.003
v -1.000000 -1.099507 -1.191676
v -1.000000 0.533483 -1.191676
v -1.000000 -1.099507 -5.965627
v -1.000000 0.533483 -5.965627
v 1.000000 -1.099507 -1.191676
v 1.000000 0.533483 -1.191676
v 1.000000 -1.099507 -5.965627
v 1.000000 0.533483 -5.965627
vt 0.375000 0.000000
vt 0.625000 0.000000
vt 0.625000 0.250000
vt 0.375000 0.250000
vt 0.625000 0.500000
vt 0.375000 0.500000
vt 1.000000 0.366657
vt 1.000000 0.808059
vt 0.000000 0.808059
vt 0.000000 0.366657
vt 0.375000 0.750000
vt 0.625000 0.750000
vt 0.625000 1.000000
vt 0.375000 1.000000
vt 0.125000 0.500000
vt 0.125000 0.750000
vt 0.875000 0.500000
vt 0.875000 0.750000
vn -1.0000 0.0000 0.0000
vn 0.0000 0.0000 -1.0000
vn 1.0000 0.0000 0.0000
vn 0.0000 0.0000 1.0000
vn 0.0000 -1.0000 0.0000
vn 0.0000 1.0000 0.0000
usemtl Material.003
s off
f 1/1/1 2/2/1 4/3/1 3/4/1
f 3/4/2 4/3/2 8/5/2 7/6/2
f 7/7/3 8/8/3 6/9/3 5/10/3
f 5/11/4 6/12/4 2/13/4 1/14/4
f 3/15/5 7/6/5 5/11/5 1/16/5
f 8/5/6 4/17/6 2/18/6 6/12/6
