# Wavefront OBJ exported by MilkShape 3D

v 3.000000 0.000000 0.000000
v 3.000000 1.000000 0.000000
v 2.598076 0.000000 1.500000
v 2.598076 1.000000 1.500000
v 1.500000 0.000000 2.598076
v 1.500000 1.000000 2.598076
v 0.000000 0.000000 3.000000
v 0.000000 1.000000 3.000000
v -1.500000 0.000000 2.598076
v -1.500000 1.000000 2.598076
v -2.598076 0.000000 1.500000
v -2.598076 1.000000 1.500000
v -3.000000 0.000000 0.000000
v -3.000000 1.000000 0.000000
v -2.598076 0.000000 -1.500000
v -2.598076 1.000000 -1.500000
v -1.500000 0.000000 -2.598076
v -1.500000 1.000000 -2.598076
v -0.000000 0.000000 -3.000000
v -0.000000 1.000000 -3.000000
v 1.500000 0.000000 -2.598076
v 1.500000 1.000000 -2.598076
v 2.598076 0.000000 -1.500000
v 2.598076 1.000000 -1.500000
v 0.000000 1.000000 0.000000
v 2.187000 1.000000 -0.000000
v 2.187000 1.642857 -0.000000
v 1.893997 1.000000 1.093500
v 1.893997 1.642857 1.093500
v 1.093500 1.000000 1.893997
v 1.093500 1.642857 1.893997
v 0.000000 1.000000 2.187000
v 0.000000 1.642857 2.187000
v -1.093500 1.000000 1.893997
v -1.093500 1.642857 1.893997
v -1.893997 1.000000 1.093500
v -1.893997 1.642857 1.093500
v -2.187000 1.000000 -0.000000
v -2.187000 1.642857 -0.000000
v -1.893997 1.000000 -1.093500
v -1.893997 1.642857 -1.093500
v -1.093500 1.000000 -1.893997
v -1.093500 1.642857 -1.893997
v 0.000000 1.000000 -2.187000
v 0.000000 1.642857 -2.187000
v 1.093500 1.000000 -1.893997
v 1.093500 1.642857 -1.893997
v 1.893997 1.000000 -1.093500
v 1.893997 1.642857 -1.093500
v 0.000000 2.190476 -0.000000
v -1.074074 2.107936 1.888889
v -1.074074 1.620635 1.888889
v 1.074074 2.107936 1.888889
v 1.074074 1.620635 1.888889
v 1.074074 2.107936 -1.888889
v 1.074074 1.620635 -1.888889
v -1.074074 2.107936 -1.888889
v -1.074074 1.620635 -1.888889
v -1.074074 3.041269 -0.009353
v -1.074074 2.063492 -0.009353
v 1.074074 3.041269 -0.009353
v 1.074074 2.063492 -0.009353
v 1.074074 2.641269 -1.226049
v 1.074074 2.063492 -1.323979
v -1.074074 2.641269 -1.226049
v -1.074074 2.063492 -1.323979
v -1.074097 2.641240 1.263101
v -1.074097 2.063485 1.361032
v 1.074097 2.641240 1.263101
v 1.074097 2.063485 1.361032
v 1.111111 2.657270 -1.398597
v 1.111111 6.504355 -2.501731
v 0.962251 2.813111 -0.855118
v 0.962251 6.660195 -1.958252
v 0.555556 2.925211 -0.464178
v 0.555556 6.772295 -1.567312
v 0.000000 2.966242 -0.321084
v 0.000000 6.813327 -1.424218
v -0.555556 2.925211 -0.464178
v -0.555556 6.772295 -1.567312
v -0.962250 2.813111 -0.855118
v -0.962250 6.660195 -1.958252
v -1.111111 2.657270 -1.398597
v -1.111111 6.504355 -2.501731
v -0.962250 2.506847 -1.923187
v -0.962250 6.353931 -3.026320
v -0.555555 2.394747 -2.314126
v -0.555555 6.241831 -3.417260
v 0.000000 2.353715 -2.457221
v 0.000000 6.200799 -3.560354
v 0.555556 2.394747 -2.314126
v 0.555556 6.241831 -3.417260
v 0.962251 2.506847 -1.923187
v 0.962251 6.353931 -3.026320
v 1.409091 6.480430 -2.494871
v 1.409091 7.617613 -2.816622
v 1.220309 6.675776 -1.813617
v 1.220309 7.811812 -2.139370
v 0.704545 6.817940 -1.317834
v 0.704545 7.953976 -1.643587
v 0.000000 6.869976 -1.136365
v 0.000000 8.006011 -1.462118
v -0.704545 6.817940 -1.317834
v -0.704545 7.953976 -1.643587
v -1.220308 6.675776 -1.813617
v -1.220308 7.811812 -2.139370
v -1.409091 6.480430 -2.494871
v -1.409091 7.617613 -2.816623
v -1.220308 6.287379 -3.168122
v -1.220308 7.423414 -3.493875
v -0.704545 6.145215 -3.663905
v -0.704545 7.281250 -3.989658
v 0.000000 6.093179 -3.845375
v 0.000000 7.229215 -4.171128
v 0.704545 6.145215 -3.663905
v 0.704546 7.281250 -3.989658
v 1.220309 6.287378 -3.168122
v 1.220309 7.423414 -3.493875
v 1.268207 7.945297 -2.910597
v 1.098303 8.120087 -2.301031
v 0.634076 8.248030 -1.854840
v 0.000000 8.294862 -1.691518
v -0.634076 8.248031 -1.854840
v -1.098303 8.120087 -2.301031
v -1.268207 7.945297 -2.910597
v -1.098303 7.770522 -3.520110
v -0.634076 7.642579 -3.966301
v 0.000000 7.595747 -4.129623
v 0.634076 7.642579 -3.966301
v 1.098303 7.770522 -3.520110
v 0.924509 8.141892 -2.966966
v 0.000000 8.251126 -2.998288
v 0.800681 8.269320 -2.522575
v 0.462255 8.362590 -2.197302
v 0.000000 8.396722 -2.078270
v -0.462255 8.362591 -2.197302
v -0.800681 8.269320 -2.522575
v -0.924509 8.141892 -2.966966
v -0.800681 8.014478 -3.411314
v -0.462255 7.921207 -3.736587
v 0.000000 7.887075 -3.855618
v 0.462255 7.921207 -3.736587
v 0.800681 8.014478 -3.411314
v -1.109192 2.657270 -1.398597
v -1.109192 2.039855 -1.221556
v 1.109337 2.657270 -1.398597
v 1.109337 2.039855 -1.221556
v 1.044399 2.588882 -1.637096
v 1.113922 2.039855 -1.221556
v -1.044253 2.588882 -1.637096
v -1.040578 2.734357 -1.129764
v 1.031062 2.734357 -1.129764
# 152 vertices

vt 0.000000 1.000000
vt 0.000000 0.000000
vt 0.083333 0.000000
vt 0.083333 1.000000
vt 0.166667 1.000000
vt 0.166667 0.000000
vt 0.250000 0.000000
vt 0.250000 1.000000
vt 0.333333 1.000000
vt 0.333333 0.000000
vt 0.416667 0.000000
vt 0.416667 1.000000
vt 0.500000 1.000000
vt 0.500000 0.000000
vt 0.583333 0.000000
vt 0.583333 1.000000
vt 0.666667 1.000000
vt 0.666667 0.000000
vt 0.750000 0.000000
vt 0.750000 1.000000
vt 0.833333 1.000000
vt 0.833333 0.000000
vt 0.916667 0.000000
vt 0.916667 1.000000
vt 1.000000 1.000000
vt 1.000000 0.000000
# 26 texture coordinates

vn 0.000000 1.000000 0.000000
vn 1.000000 0.000000 0.000000
vn 0.866025 0.000000 0.500000
vn 0.500000 0.000000 0.866025
vn 0.000000 0.000000 1.000000
vn -0.500000 0.000000 0.866025
vn -0.866025 0.000000 0.500000
vn -1.000000 0.000000 0.000000
vn -0.866025 0.000000 -0.500000
vn -0.500000 0.000000 -0.866025
vn 0.000000 0.000000 -1.000000
vn 0.500000 0.000000 -0.866025
vn 0.866025 0.000000 -0.500000
vn 0.242898 0.970052 0.000000
vn 0.210356 0.970052 0.121449
vn 0.121449 0.970052 0.210356
vn 0.000000 0.970052 0.242898
vn -0.121449 0.970052 0.210356
vn -0.210356 0.970052 0.121449
vn -0.242898 0.970052 0.000000
vn -0.210356 0.970052 -0.121449
vn -0.121449 0.970052 -0.210356
vn 0.000000 0.970052 -0.242898
vn 0.121449 0.970052 -0.210356
vn 0.210356 0.970052 -0.121449
vn 0.000000 -1.000000 0.000000
vn 0.000000 0.167118 0.985937
vn 0.000000 0.167112 -0.985938
vn 0.000000 0.949979 -0.312314
vn 0.000000 0.999979 -0.006517
vn 0.000000 0.953969 0.299905
vn 0.999990 -0.001219 -0.004251
vn 0.867111 0.137299 0.478819
vn 0.500000 0.238709 0.832477
vn -0.000000 0.275637 0.961262
vn -0.500000 0.238709 0.832477
vn -0.867111 0.137299 0.478819
vn -0.999990 -0.001219 -0.004251
vn -0.864899 -0.138355 -0.482501
vn -0.500000 -0.238709 -0.832477
vn 0.000000 -0.275637 -0.961262
vn 0.500000 -0.238709 -0.832477
vn 0.864899 -0.138355 -0.482501
vn 0.362119 0.887938 -0.283612
vn 0.000000 0.961261 -0.275639
vn 0.327541 0.938875 -0.105976
vn 0.999999 -0.000402 -0.001421
vn 0.985280 0.170545 -0.011765
vn 0.866209 0.137505 0.480390
vn 0.815677 0.370441 0.444347
vn 0.205187 0.978223 0.031273
vn 0.461342 0.400891 0.791486
vn 0.027874 0.995435 0.091279
vn -0.050487 0.492228 0.869001
vn -0.156911 0.985905 0.058049
vn -0.523914 0.390926 0.756764
vn -0.299675 0.952181 -0.059558
vn -0.866209 0.137505 0.480390
vn -0.866173 0.346325 0.360282
vn -0.362120 0.903303 -0.230027
vn -0.985249 0.150625 -0.081224
vn -0.999999 -0.000402 -0.001421
vn -0.327540 0.852367 -0.407661
vn -0.865840 -0.137679 -0.481005
vn -0.815673 0.078710 -0.573134
vn -0.205189 0.813006 -0.544902
vn -0.461340 -0.079419 -0.883662
vn -0.027874 0.795804 -0.604913
vn 0.050486 -0.043021 -0.997798
vn 0.156913 0.805332 -0.571681
vn 0.523912 -0.069473 -0.848935
vn 0.299675 0.839054 -0.454074
vn 0.865840 -0.137679 -0.481005
vn 0.866170 0.102791 -0.489065
vn 0.662414 0.730538 0.165898
vn 0.754070 0.625926 -0.198983
vn 0.393243 0.808516 0.437791
vn 0.018737 0.838951 0.543884
vn -0.360796 0.813681 0.455795
vn -0.643678 0.739489 0.197065
vn -0.754073 0.636255 -0.162955
vn -0.662407 0.531624 -0.527819
vn -0.393233 0.453693 -0.799707
vn -0.018736 0.423289 -0.905801
vn 0.360787 0.448536 -0.817709
vn 0.643663 0.522709 -0.558993
vn -0.000000 0.757399 0.652952
vn -0.000000 -0.589710 0.807615
vn 0.000000 -0.796344 -0.604844
vn 0.999958 0.005754 0.007145
vn 0.967414 -0.069792 -0.243392
vn 0.000000 0.894463 -0.447141
vn 0.000000 -0.603498 -0.797364
vn -0.967413 -0.069792 -0.243395
vn -0.999970 -0.002123 -0.007403
vn -0.971198 0.065677 0.229044
vn 0.000000 0.484810 -0.874620
vn 0.962970 0.080899 0.257186
# 98 normals

g LockNut
s 2
f 2/1/1 25/1/1 4/1/1
s 1
f 1/2/2 2/1/2 3/3/3
f 2/1/2 4/4/3 3/3/3
s 2
f 4/1/1 25/1/1 6/1/1
s 1
f 3/3/3 4/4/3 6/5/4
f 3/3/3 6/5/4 5/6/4
s 2
f 6/1/1 25/1/1 8/1/1
s 1
f 5/6/4 6/5/4 7/7/5
f 6/5/4 8/8/5 7/7/5
s 2
f 8/1/1 25/1/1 10/1/1
s 1
f 7/7/5 8/8/5 10/9/6
f 7/7/5 10/9/6 9/10/6
s 2
f 10/1/1 25/1/1 12/1/1
s 1
f 9/10/6 10/9/6 11/11/7
f 10/9/6 12/12/7 11/11/7
s 2
f 12/1/1 25/1/1 14/1/1
s 1
f 11/11/7 12/12/7 14/13/8
f 11/11/7 14/13/8 13/14/8
s 2
f 14/1/1 25/1/1 16/1/1
s 1
f 13/14/8 14/13/8 15/15/9
f 14/13/8 16/16/9 15/15/9
s 2
f 16/1/1 25/1/1 18/1/1
s 1
f 15/15/9 16/16/9 18/17/10
f 15/15/9 18/17/10 17/18/10
s 2
f 18/1/1 25/1/1 20/1/1
s 1
f 17/18/10 18/17/10 19/19/11
f 18/17/10 20/20/11 19/19/11
s 2
f 20/1/1 25/1/1 22/1/1
s 1
f 19/19/11 20/20/11 22/21/12
f 19/19/11 22/21/12 21/22/12
s 2
f 22/1/1 25/1/1 24/1/1
s 1
f 21/22/12 22/21/12 23/23/13
f 22/21/12 24/24/13 23/23/13
s 2
f 24/1/1 25/1/1 2/1/1
s 1
f 23/23/13 24/24/13 2/25/2
f 23/23/13 2/25/2 1/26/2
# 36 triangles in group

g SwitchBase
s 2
f 27/1/14 50/1/1 29/1/15
s 1
f 26/2/2 27/1/2 28/3/3
f 27/1/2 29/4/3 28/3/3
s 2
f 29/1/15 50/1/1 31/1/16
s 1
f 28/3/3 29/4/3 31/5/4
f 28/3/3 31/5/4 30/6/4
s 2
f 31/1/16 50/1/1 33/1/17
s 1
f 30/6/4 31/5/4 32/7/5
f 31/5/4 33/8/5 32/7/5
s 2
f 33/1/17 50/1/1 35/1/18
s 1
f 32/7/5 33/8/5 35/9/6
f 32/7/5 35/9/6 34/10/6
s 2
f 35/1/18 50/1/1 37/1/19
s 1
f 34/10/6 35/9/6 36/11/7
f 35/9/6 37/12/7 36/11/7
s 2
f 37/1/19 50/1/1 39/1/20
s 1
f 36/11/7 37/12/7 39/13/8
f 36/11/7 39/13/8 38/14/8
s 2
f 39/1/20 50/1/1 41/1/21
s 1
f 38/14/8 39/13/8 40/15/9
f 39/13/8 41/16/9 40/15/9
s 2
f 41/1/21 50/1/1 43/1/22
s 1
f 40/15/9 41/16/9 43/17/10
f 40/15/9 43/17/10 42/18/10
s 2
f 43/1/22 50/1/1 45/1/23
s 1
f 42/18/10 43/17/10 44/19/11
f 43/17/10 45/20/11 44/19/11
s 2
f 45/1/23 50/1/1 47/1/24
s 1
f 44/19/11 45/20/11 47/21/12
f 44/19/11 47/21/12 46/22/12
s 2
f 47/1/24 50/1/1 49/1/25
s 1
f 46/22/12 47/21/12 48/23/13
f 47/21/12 49/24/13 48/23/13
s 2
f 49/1/25 50/1/1 27/1/14
s 1
f 48/23/13 49/24/13 27/25/2
f 48/23/13 27/25/2 26/26/2
# 36 triangles in group

g Slider
f 51/1/5 52/2/5 53/25/5
f 52/2/5 54/26/5 53/25/5
s 2
f 53/1/2 54/2/2 55/25/2
f 54/2/2 56/26/2 55/25/2
s 1
f 55/1/11 56/2/11 57/25/11
f 56/2/11 58/26/11 57/25/11
s 2
f 57/1/8 58/2/8 51/25/8
f 58/2/8 52/26/8 51/25/8
s 3
f 57/1/1 51/2/1 55/25/1
f 51/2/1 53/26/1 55/25/1
f 52/1/26 58/2/26 54/25/26
f 58/2/26 56/26/26 54/25/26
# 12 triangles in group

g LockingTine
s 1
f 67/1/27 68/2/27 69/25/27
f 68/2/27 70/26/27 69/25/27
s 3
f 61/1/2 62/2/2 63/25/2
f 62/2/2 64/26/2 63/25/2
s 1
f 63/1/28 64/2/28 65/25/28
f 64/2/28 66/26/28 65/25/28
s 3
f 65/1/8 66/2/8 59/25/8
f 66/2/8 60/26/8 59/25/8
s 2
f 65/1/29 59/2/30 63/25/29
f 59/2/30 61/26/30 63/25/29
f 60/1/26 66/2/26 62/25/26
f 66/2/26 64/26/26 62/25/26
s 3
f 67/1/8 59/1/8 60/1/8
f 67/1/8 60/1/8 68/1/8
s 2
f 69/1/31 61/1/30 59/1/30
f 69/1/31 59/1/30 67/1/31
f 68/1/26 60/1/26 62/1/26
f 68/1/26 62/1/26 70/1/26
s 3
f 70/1/2 62/1/2 61/1/2
f 70/1/2 61/1/2 69/1/2
# 20 triangles in group

g Switch
s 1
f 71/2/32 72/1/32 73/3/33
f 72/1/32 74/4/33 73/3/33
f 73/3/33 74/4/33 76/5/34
f 73/3/33 76/5/34 75/6/34
f 75/6/34 76/5/34 77/7/35
f 76/5/34 78/8/35 77/7/35
f 77/7/35 78/8/35 80/9/36
f 77/7/35 80/9/36 79/10/36
f 79/10/36 80/9/36 81/11/37
f 80/9/36 82/12/37 81/11/37
f 81/11/37 82/12/37 84/13/38
f 81/11/37 84/13/38 83/14/38
f 83/14/38 84/13/38 85/15/39
f 84/13/38 86/16/39 85/15/39
f 85/15/39 86/16/39 88/17/40
f 85/15/39 88/17/40 87/18/40
f 87/18/40 88/17/40 89/19/41
f 88/17/40 90/20/41 89/19/41
f 89/19/41 90/20/41 92/21/42
f 89/19/41 92/21/42 91/22/42
f 91/22/42 92/21/42 93/23/43
f 92/21/42 94/24/43 93/23/43
f 93/23/43 94/24/43 72/25/32
f 93/23/43 72/25/32 71/26/32
f 131/1/44 132/1/45 133/1/46
f 95/2/47 96/1/48 97/3/49
f 96/1/48 98/4/50 97/3/49
f 133/1/46 132/1/45 134/1/51
f 97/3/49 98/4/50 100/5/52
f 97/3/49 100/5/52 99/6/34
f 134/1/51 132/1/45 135/1/53
f 99/6/34 100/5/52 101/7/35
f 100/5/52 102/8/54 101/7/35
f 135/1/53 132/1/45 136/1/55
f 101/7/35 102/8/54 104/9/56
f 101/7/35 104/9/56 103/10/36
f 136/1/55 132/1/45 137/1/57
f 103/10/36 104/9/56 105/11/58
f 104/9/56 106/12/59 105/11/58
f 137/1/57 132/1/45 138/1/60
f 105/11/58 106/12/59 108/13/61
f 105/11/58 108/13/61 107/14/62
f 138/1/60 132/1/45 139/1/63
f 107/14/62 108/13/61 109/15/64
f 108/13/61 110/16/65 109/15/64
f 139/1/63 132/1/45 140/1/66
f 109/15/64 110/16/65 112/17/67
f 109/15/64 112/17/67 111/18/40
f 140/1/66 132/1/45 141/1/68
f 111/18/40 112/17/67 113/19/41
f 112/17/67 114/20/69 113/19/41
f 141/1/68 132/1/45 142/1/70
f 113/19/41 114/20/69 116/21/71
f 113/19/41 116/21/71 115/22/42
f 142/1/70 132/1/45 143/1/72
f 115/22/42 116/21/71 117/23/73
f 116/21/71 118/24/74 117/23/73
f 143/1/72 132/1/45 131/1/44
f 117/23/73 118/24/74 96/25/48
f 117/23/73 96/25/48 95/26/47
f 120/1/75 98/1/50 96/1/48
f 120/1/75 96/1/48 119/1/76
f 121/1/77 100/1/52 98/1/50
f 121/1/77 98/1/50 120/1/75
f 122/1/78 102/1/54 100/1/52
f 122/1/78 100/1/52 121/1/77
f 123/1/79 104/1/56 102/1/54
f 123/1/79 102/1/54 122/1/78
f 124/1/80 106/1/59 104/1/56
f 124/1/80 104/1/56 123/1/79
f 125/1/81 108/1/61 106/1/59
f 125/1/81 106/1/59 124/1/80
f 126/1/82 110/1/65 108/1/61
f 126/1/82 108/1/61 125/1/81
f 127/1/83 112/1/67 110/1/65
f 127/1/83 110/1/65 126/1/82
f 128/1/84 114/1/69 112/1/67
f 128/1/84 112/1/67 127/1/83
f 129/1/85 116/1/71 114/1/69
f 129/1/85 114/1/69 128/1/84
f 130/1/86 118/1/74 116/1/71
f 130/1/86 116/1/71 129/1/85
f 119/1/76 96/1/48 118/1/74
f 119/1/76 118/1/74 130/1/86
f 133/1/46 120/1/75 119/1/76
f 133/1/46 119/1/76 131/1/44
f 134/1/51 121/1/77 120/1/75
f 134/1/51 120/1/75 133/1/46
f 135/1/53 122/1/78 121/1/77
f 135/1/53 121/1/77 134/1/51
f 136/1/55 123/1/79 122/1/78
f 136/1/55 122/1/78 135/1/53
f 137/1/57 124/1/80 123/1/79
f 137/1/57 123/1/79 136/1/55
f 138/1/60 125/1/81 124/1/80
f 138/1/60 124/1/80 137/1/57
f 139/1/63 126/1/82 125/1/81
f 139/1/63 125/1/81 138/1/60
f 140/1/66 127/1/83 126/1/82
f 140/1/66 126/1/82 139/1/63
f 141/1/68 128/1/84 127/1/83
f 141/1/68 127/1/83 140/1/66
f 142/1/70 129/1/85 128/1/84
f 142/1/70 128/1/84 141/1/68
f 143/1/72 130/1/86 129/1/85
f 143/1/72 129/1/85 142/1/70
f 131/1/44 119/1/76 130/1/86
f 131/1/44 130/1/86 143/1/72
s 2
f 151/1/87 145/2/88 152/25/87
f 145/2/88 149/26/89 152/25/87
s 1
f 146/1/90 147/2/91 148/25/91
s 2
f 147/2/92 149/26/89 148/25/45
f 148/1/45 149/2/89 150/25/93
f 149/2/89 145/26/88 150/25/93
s 1
f 150/1/94 145/2/95 144/25/95
s 3
f 150/1/45 144/2/45 148/25/45
f 144/2/45 146/26/45 148/25/45
s 1
f 151/1/96 144/1/95 145/1/95
s 2
f 152/1/87 146/1/97 144/1/45
f 152/1/87 144/1/45 151/1/87
f 149/1/89 147/1/92 146/1/97
s 1
f 149/1/98 146/1/90 152/1/98
# 122 triangles in group

# 226 triangles total

