# Wavefront OBJ exported by MilkShape 3D

v 3.000000 0.000000 0.000000
v 3.000000 1.000000 0.000000
v 2.598076 0.000000 1.500000
v 2.598076 1.000000 1.500000
v 1.500000 0.000000 2.598076
v 1.500000 1.000000 2.598076
v 0.000000 0.000000 3.000000
v 0.000000 1.000000 3.000000
v -1.500000 0.000000 2.598076
v -1.500000 1.000000 2.598076
v -2.598076 0.000000 1.500000
v -2.598076 1.000000 1.500000
v -3.000000 0.000000 0.000000
v -3.000000 1.000000 0.000000
v -2.598076 0.000000 -1.500000
v -2.598076 1.000000 -1.500000
v -1.500000 0.000000 -2.598076
v -1.500000 1.000000 -2.598076
v -0.000000 0.000000 -3.000000
v -0.000000 1.000000 -3.000000
v 1.500000 0.000000 -2.598076
v 1.500000 1.000000 -2.598076
v 2.598076 0.000000 -1.500000
v 2.598076 1.000000 -1.500000
v 0.000000 1.000000 0.000000
v 2.187000 1.000000 -0.000000
v 2.187000 1.642857 -0.000000
v 1.893997 1.000000 1.093500
v 1.893997 1.642857 1.093500
v 1.093500 1.000000 1.893997
v 1.093500 1.642857 1.893997
v 0.000000 1.000000 2.187000
v 0.000000 1.642857 2.187000
v -1.093500 1.000000 1.893997
v -1.093500 1.642857 1.893997
v -1.893997 1.000000 1.093500
v -1.893997 1.642857 1.093500
v -2.187000 1.000000 -0.000000
v -2.187000 1.642857 -0.000000
v -1.893997 1.000000 -1.093500
v -1.893997 1.642857 -1.093500
v -1.093500 1.000000 -1.893997
v -1.093500 1.642857 -1.893997
v 0.000000 1.000000 -2.187000
v 0.000000 1.642857 -2.187000
v 1.093500 1.000000 -1.893997
v 1.093500 1.642857 -1.893997
v 1.893997 1.000000 -1.093500
v 1.893997 1.642857 -1.093500
v 0.000000 2.102757 -0.000000
v -1.074074 2.107936 1.888889
v -1.074074 1.620635 1.888889
v 1.074074 2.107936 1.888889
v 1.074074 1.620635 1.888889
v 1.074074 2.107936 -1.888889
v 1.074074 1.620635 -1.888889
v -1.074074 2.107936 -1.888889
v -1.074074 1.620635 -1.888889
v -1.074074 2.645938 -0.898085
v -1.074074 2.063492 -0.898085
v 1.074074 2.645938 -0.898085
v 1.074074 2.063492 -0.898085
v 1.074074 2.645938 -1.135140
v 1.074074 2.063492 -1.233070
v -1.074074 2.645938 -1.135140
v -1.074074 2.063492 -1.233070
v -1.074097 2.645938 -0.898085
v 1.074097 2.645938 -0.898085
v 1.111111 2.795634 0.012603
v 1.111111 6.797754 0.012603
v 0.962251 2.795634 0.577984
v 0.962251 6.797754 0.577984
v 0.555556 2.795634 0.984679
v 0.555556 6.797754 0.984678
v 0.000000 2.795634 1.133539
v 0.000000 6.797754 1.133539
v -0.555556 2.795634 0.984679
v -0.555556 6.797754 0.984679
v -0.962250 2.795634 0.577984
v -0.962250 6.797754 0.577984
v -1.111111 2.795634 0.012603
v -1.111111 6.797754 0.012603
v -0.962250 2.795634 -0.533127
v -0.962250 6.797754 -0.533127
v -0.555556 2.795634 -0.939822
v -0.555556 6.797754 -0.939822
v 0.000000 2.795634 -1.088683
v 0.000000 6.797754 -1.088683
v 0.555556 2.795634 -0.939822
v 0.555556 6.797754 -0.939822
v 0.962251 2.795634 -0.533127
v 0.962251 6.797754 -0.533127
v 1.409091 6.772865 0.012603
v 1.409091 7.954682 0.016765
v 1.220309 6.772865 0.721310
v 1.220309 7.954682 0.721310
v 0.704545 6.772865 1.237073
v 0.704545 7.954682 1.237073
v 0.000000 6.772865 1.425856
v 0.000000 7.954682 1.425856
v -0.704545 6.772865 1.237073
v -0.704545 7.954682 1.237073
v -1.220308 6.772865 0.721310
v -1.220308 7.954682 0.721310
v -1.409091 6.772865 0.012603
v -1.409091 7.954682 0.016765
v -1.220308 6.772865 -0.687781
v -1.220308 7.954682 -0.687781
v -0.704545 6.772865 -1.203543
v -0.704545 7.954682 -1.203544
v 0.000000 6.772865 -1.392326
v 0.000000 7.954682 -1.392326
v 0.704545 6.772865 -1.203544
v 0.704545 7.954682 -1.203544
v 1.220309 6.772865 -0.687780
v 1.220309 7.954682 -0.687781
v 1.268207 8.295575 0.016753
v 1.098303 8.295575 0.650884
v 0.634076 8.295574 1.115056
v 0.000000 8.295575 1.284960
v -0.634076 8.295575 1.115056
v -1.098303 8.295574 0.650884
v -1.268207 8.295574 0.016753
v -1.098303 8.295574 -0.617323
v -0.634076 8.295575 -1.081496
v 0.000000 8.295574 -1.251399
v 0.634076 8.295574 -1.081496
v 1.098303 8.295575 -0.617323
v 0.924509 8.500093 0.016757
v 0.000000 8.613729 0.016757
v 0.800681 8.500092 0.479056
v 0.462255 8.500092 0.817438
v 0.000000 8.500093 0.941266
v -0.462255 8.500093 0.817437
v -0.800681 8.500093 0.479056
v -0.924509 8.500092 0.016757
v -0.800681 8.500093 -0.445498
v -0.462255 8.500093 -0.783880
v 0.000000 8.500092 -0.907708
v 0.462255 8.500092 -0.783880
v 0.800681 8.500092 -0.445498
v -1.109192 2.795634 0.012603
v -1.109192 2.153336 0.012603
v 1.109337 2.795634 0.012603
v 1.109337 2.153336 0.012603
v 1.044399 2.795634 -0.235508
v 1.113922 2.153336 0.012603
v -1.044253 2.795634 -0.235508
v -1.040578 2.795634 0.292270
v 1.031062 2.795634 0.292270
# 150 vertices

vt 0.000000 1.000000
vt 0.000000 0.000000
vt 0.083333 0.000000
vt 0.083333 1.000000
vt 0.166667 1.000000
vt 0.166667 0.000000
vt 0.250000 0.000000
vt 0.250000 1.000000
vt 0.333333 1.000000
vt 0.333333 0.000000
vt 0.416667 0.000000
vt 0.416667 1.000000
vt 0.500000 1.000000
vt 0.500000 0.000000
vt 0.583333 0.000000
vt 0.583333 1.000000
vt 0.666667 1.000000
vt 0.666667 0.000000
vt 0.750000 0.000000
vt 0.750000 1.000000
vt 0.833333 1.000000
vt 0.833333 0.000000
vt 0.916667 0.000000
vt 0.916667 1.000000
vt 1.000000 1.000000
vt 1.000000 0.000000
# 26 texture coordinates

vn 0.000000 1.000000 0.000000
vn 1.000000 0.000000 0.000000
vn 0.866025 0.000000 0.500000
vn 0.500000 0.000000 0.866025
vn 0.000000 0.000000 1.000000
vn -0.500000 0.000000 0.866025
vn -0.866025 0.000000 0.500000
vn -1.000000 0.000000 0.000000
vn -0.866025 0.000000 -0.500000
vn -0.500000 0.000000 -0.866025
vn 0.000000 0.000000 -1.000000
vn 0.500000 0.000000 -0.866025
vn 0.866025 0.000000 -0.500000
vn 0.205787 0.978597 0.000000
vn 0.178217 0.978597 0.102893
vn 0.102893 0.978597 0.178217
vn 0.000000 0.978597 0.205787
vn -0.102893 0.978597 0.178217
vn -0.178217 0.978597 0.102893
vn -0.205787 0.978597 0.000000
vn -0.178217 0.978597 -0.102893
vn -0.102893 0.978597 -0.178217
vn 0.000000 0.978597 -0.205787
vn 0.102893 0.978597 -0.178217
vn 0.178217 0.978597 -0.102893
vn 0.000000 -1.000000 0.000000
vn 0.707107 0.000000 -0.707107
vn 0.894427 0.000000 -0.447214
vn 0.000000 0.165809 -0.986158
vn -0.894427 0.000000 -0.447214
vn -0.707107 0.000000 -0.707107
vn 0.000000 0.000000 0.000000
vn 0.999990 -0.000000 -0.004423
vn 0.867111 0.000000 0.498116
vn -0.867111 0.000000 0.498116
vn -0.999990 -0.000000 -0.004423
vn -0.864899 -0.000000 -0.501946
vn 0.864899 -0.000000 -0.501946
vn 0.362119 0.931715 -0.027877
vn 0.327541 0.931715 0.156919
vn 0.999999 0.000005 -0.001477
vn 0.985280 0.167181 0.035700
vn 0.815677 0.233612 0.529241
vn 0.205187 0.931708 0.299696
vn 0.461342 0.167198 0.871326
vn 0.027874 0.931714 0.362122
vn -0.050487 0.233630 0.971014
vn -0.156911 0.931713 0.327552
vn -0.523914 0.167189 0.835202
vn -0.299675 0.931711 0.205206
vn -0.866173 0.233601 0.441785
vn -0.362120 0.931715 0.027868
vn -0.985249 0.167178 -0.036559
vn -0.999999 0.000005 -0.001477
vn -0.327540 0.931715 -0.156925
vn -0.815673 0.233639 -0.529236
vn -0.205189 0.931707 -0.299699
vn -0.461340 0.167228 -0.871321
vn -0.027874 0.931712 -0.362126
vn 0.050486 0.233676 -0.971003
vn 0.156913 0.931711 -0.327555
vn 0.523912 0.167216 -0.835198
vn 0.299675 0.931710 -0.205210
vn 0.866170 0.233614 -0.441786
vn 0.662414 0.656510 0.360835
vn 0.754070 0.656526 -0.018746
vn 0.393243 0.656524 0.643689
vn 0.018738 0.656537 0.754061
vn -0.360796 0.656527 0.662419
vn -0.643678 0.656524 0.393262
vn -0.754073 0.656524 0.018733
vn -0.662407 0.656516 -0.360837
vn -0.393233 0.656546 -0.643673
vn -0.018736 0.656564 -0.754037
vn 0.360787 0.656552 -0.662399
vn 0.643663 0.656539 -0.393261
vn -0.000000 0.548081 0.836425
vn 0.000000 -0.789474 0.613783
vn 0.000000 -0.598777 -0.800916
vn 0.999958 0.003561 0.008454
vn 0.967414 -0.000000 -0.253201
vn -0.000000 0.983062 -0.183273
vn 0.000000 -0.360336 -0.932822
vn -0.967413 -0.000000 -0.253204
vn -0.999970 -0.000000 -0.007701
vn -0.971198 0.000000 0.238274
vn -0.000000 0.707107 -0.707107
vn 0.962970 0.006875 0.269522
# 88 normals

g LockNut
s 2
f 2/1/1 25/1/1 4/1/1
s 1
f 1/2/2 2/1/2 3/3/3
f 2/1/2 4/4/3 3/3/3
s 2
f 4/1/1 25/1/1 6/1/1
s 1
f 3/3/3 4/4/3 6/5/4
f 3/3/3 6/5/4 5/6/4
s 2
f 6/1/1 25/1/1 8/1/1
s 1
f 5/6/4 6/5/4 7/7/5
f 6/5/4 8/8/5 7/7/5
s 2
f 8/1/1 25/1/1 10/1/1
s 1
f 7/7/5 8/8/5 10/9/6
f 7/7/5 10/9/6 9/10/6
s 2
f 10/1/1 25/1/1 12/1/1
s 1
f 9/10/6 10/9/6 11/11/7
f 10/9/6 12/12/7 11/11/7
s 2
f 12/1/1 25/1/1 14/1/1
s 1
f 11/11/7 12/12/7 14/13/8
f 11/11/7 14/13/8 13/14/8
s 2
f 14/1/1 25/1/1 16/1/1
s 1
f 13/14/8 14/13/8 15/15/9
f 14/13/8 16/16/9 15/15/9
s 2
f 16/1/1 25/1/1 18/1/1
s 1
f 15/15/9 16/16/9 18/17/10
f 15/15/9 18/17/10 17/18/10
s 2
f 18/1/1 25/1/1 20/1/1
s 1
f 17/18/10 18/17/10 19/19/11
f 18/17/10 20/20/11 19/19/11
s 2
f 20/1/1 25/1/1 22/1/1
s 1
f 19/19/11 20/20/11 22/21/12
f 19/19/11 22/21/12 21/22/12
s 2
f 22/1/1 25/1/1 24/1/1
s 1
f 21/22/12 22/21/12 23/23/13
f 22/21/12 24/24/13 23/23/13
s 2
f 24/1/1 25/1/1 2/1/1
s 1
f 23/23/13 24/24/13 2/25/2
f 23/23/13 2/25/2 1/26/2
# 36 triangles in group

g SwitchBase
s 2
f 27/1/14 50/1/1 29/1/15
s 1
f 26/2/2 27/1/2 28/3/3
f 27/1/2 29/4/3 28/3/3
s 2
f 29/1/15 50/1/1 31/1/16
s 1
f 28/3/3 29/4/3 31/5/4
f 28/3/3 31/5/4 30/6/4
s 2
f 31/1/16 50/1/1 33/1/17
s 1
f 30/6/4 31/5/4 32/7/5
f 31/5/4 33/8/5 32/7/5
s 2
f 33/1/17 50/1/1 35/1/18
s 1
f 32/7/5 33/8/5 35/9/6
f 32/7/5 35/9/6 34/10/6
s 2
f 35/1/18 50/1/1 37/1/19
s 1
f 34/10/6 35/9/6 36/11/7
f 35/9/6 37/12/7 36/11/7
s 2
f 37/1/19 50/1/1 39/1/20
s 1
f 36/11/7 37/12/7 39/13/8
f 36/11/7 39/13/8 38/14/8
s 2
f 39/1/20 50/1/1 41/1/21
s 1
f 38/14/8 39/13/8 40/15/9
f 39/13/8 41/16/9 40/15/9
s 2
f 41/1/21 50/1/1 43/1/22
s 1
f 40/15/9 41/16/9 43/17/10
f 40/15/9 43/17/10 42/18/10
s 2
f 43/1/22 50/1/1 45/1/23
s 1
f 42/18/10 43/17/10 44/19/11
f 43/17/10 45/20/11 44/19/11
s 2
f 45/1/23 50/1/1 47/1/24
s 1
f 44/19/11 45/20/11 47/21/12
f 44/19/11 47/21/12 46/22/12
s 2
f 47/1/24 50/1/1 49/1/25
s 1
f 46/22/12 47/21/12 48/23/13
f 47/21/12 49/24/13 48/23/13
s 2
f 49/1/25 50/1/1 27/1/14
s 1
f 48/23/13 49/24/13 27/25/2
f 48/23/13 27/25/2 26/26/2
# 36 triangles in group

g Slider
f 51/1/5 52/2/5 53/25/5
f 52/2/5 54/26/5 53/25/5
s 2
f 53/1/2 54/2/2 55/25/2
f 54/2/2 56/26/2 55/25/2
s 1
f 55/1/11 56/2/11 57/25/11
f 56/2/11 58/26/11 57/25/11
s 2
f 57/1/8 58/2/8 51/25/8
f 58/2/8 52/26/8 51/25/8
s 3
f 57/1/1 51/2/1 55/25/1
f 51/2/1 53/26/1 55/25/1
f 52/1/26 58/2/26 54/25/26
f 58/2/26 56/26/26 54/25/26
# 12 triangles in group

g LockingTine
s 1
f 67/1/5 60/2/5 68/25/5
f 60/2/5 62/26/5 68/25/5
s 3
f 61/1/27 62/2/28 63/25/2
f 62/2/28 64/26/2 63/25/2
s 1
f 63/1/29 64/2/29 65/25/29
f 64/2/29 66/26/29 65/25/29
s 3
f 65/1/8 66/2/8 59/25/30
f 66/2/8 60/26/31 59/25/30
s 2
f 65/1/1 59/2/1 63/25/1
f 59/2/1 61/26/1 63/25/1
f 60/1/26 66/2/26 62/25/26
f 66/2/26 64/26/26 62/25/26
s 3
f 67/1/11 59/1/30 60/1/31
s 2
f 68/1/32 61/1/1 59/1/1
f 68/1/32 59/1/1 67/1/32
s 3
f 62/1/28 61/1/27 68/1/11
# 16 triangles in group

g Switch
s 1
f 69/2/33 70/1/33 71/3/34
f 70/1/33 72/4/34 71/3/34
f 71/3/34 72/4/34 74/5/4
f 71/3/34 74/5/4 73/6/4
f 73/6/4 74/5/4 75/7/5
f 74/5/4 76/8/5 75/7/5
f 75/7/5 76/8/5 78/9/6
f 75/7/5 78/9/6 77/10/6
f 77/10/6 78/9/6 79/11/35
f 78/9/6 80/12/35 79/11/35
f 79/11/35 80/12/35 82/13/36
f 79/11/35 82/13/36 81/14/36
f 81/14/36 82/13/36 83/15/37
f 82/13/36 84/16/37 83/15/37
f 83/15/37 84/16/37 86/17/10
f 83/15/37 86/17/10 85/18/10
f 85/18/10 86/17/10 87/19/11
f 86/17/10 88/20/11 87/19/11
f 87/19/11 88/20/11 90/21/12
f 87/19/11 90/21/12 89/22/12
f 89/22/12 90/21/12 91/23/38
f 90/21/12 92/24/38 91/23/38
f 91/23/38 92/24/38 70/25/33
f 91/23/38 70/25/33 69/26/33
f 129/1/39 130/1/1 131/1/40
f 93/2/41 94/1/42 95/3/3
f 94/1/42 96/4/43 95/3/3
f 131/1/40 130/1/1 132/1/44
f 95/3/3 96/4/43 98/5/45
f 95/3/3 98/5/45 97/6/4
f 132/1/44 130/1/1 133/1/46
f 97/6/4 98/5/45 99/7/5
f 98/5/45 100/8/47 99/7/5
f 133/1/46 130/1/1 134/1/48
f 99/7/5 100/8/47 102/9/49
f 99/7/5 102/9/49 101/10/6
f 134/1/48 130/1/1 135/1/50
f 101/10/6 102/9/49 103/11/7
f 102/9/49 104/12/51 103/11/7
f 135/1/50 130/1/1 136/1/52
f 103/11/7 104/12/51 106/13/53
f 103/11/7 106/13/53 105/14/54
f 136/1/52 130/1/1 137/1/55
f 105/14/54 106/13/53 107/15/9
f 106/13/53 108/16/56 107/15/9
f 137/1/55 130/1/1 138/1/57
f 107/15/9 108/16/56 110/17/58
f 107/15/9 110/17/58 109/18/10
f 138/1/57 130/1/1 139/1/59
f 109/18/10 110/17/58 111/19/11
f 110/17/58 112/20/60 111/19/11
f 139/1/59 130/1/1 140/1/61
f 111/19/11 112/20/60 114/21/62
f 111/19/11 114/21/62 113/22/12
f 140/1/61 130/1/1 141/1/63
f 113/22/12 114/21/62 115/23/13
f 114/21/62 116/24/64 115/23/13
f 141/1/63 130/1/1 129/1/39
f 115/23/13 116/24/64 94/25/42
f 115/23/13 94/25/42 93/26/41
f 118/1/65 96/1/43 94/1/42
f 118/1/65 94/1/42 117/1/66
f 119/1/67 98/1/45 96/1/43
f 119/1/67 96/1/43 118/1/65
f 120/1/68 100/1/47 98/1/45
f 120/1/68 98/1/45 119/1/67
f 121/1/69 102/1/49 100/1/47
f 121/1/69 100/1/47 120/1/68
f 122/1/70 104/1/51 102/1/49
f 122/1/70 102/1/49 121/1/69
f 123/1/71 106/1/53 104/1/51
f 123/1/71 104/1/51 122/1/70
f 124/1/72 108/1/56 106/1/53
f 124/1/72 106/1/53 123/1/71
f 125/1/73 110/1/58 108/1/56
f 125/1/73 108/1/56 124/1/72
f 126/1/74 112/1/60 110/1/58
f 126/1/74 110/1/58 125/1/73
f 127/1/75 114/1/62 112/1/60
f 127/1/75 112/1/60 126/1/74
f 128/1/76 116/1/64 114/1/62
f 128/1/76 114/1/62 127/1/75
f 117/1/66 94/1/42 116/1/64
f 117/1/66 116/1/64 128/1/76
f 131/1/40 118/1/65 117/1/66
f 131/1/40 117/1/66 129/1/39
f 132/1/44 119/1/67 118/1/65
f 132/1/44 118/1/65 131/1/40
f 133/1/46 120/1/68 119/1/67
f 133/1/46 119/1/67 132/1/44
f 134/1/48 121/1/69 120/1/68
f 134/1/48 120/1/68 133/1/46
f 135/1/50 122/1/70 121/1/69
f 135/1/50 121/1/69 134/1/48
f 136/1/52 123/1/71 122/1/70
f 136/1/52 122/1/70 135/1/50
f 137/1/55 124/1/72 123/1/71
f 137/1/55 123/1/71 136/1/52
f 138/1/57 125/1/73 124/1/72
f 138/1/57 124/1/72 137/1/55
f 139/1/59 126/1/74 125/1/73
f 139/1/59 125/1/73 138/1/57
f 140/1/61 127/1/75 126/1/74
f 140/1/61 126/1/74 139/1/59
f 141/1/63 128/1/76 127/1/75
f 141/1/63 127/1/75 140/1/61
f 129/1/39 117/1/66 128/1/76
f 129/1/39 128/1/76 141/1/63
s 2
f 149/1/77 143/2/78 150/25/77
f 143/2/78 147/26/79 150/25/77
s 1
f 144/1/80 145/2/81 146/25/81
s 2
f 145/2/82 147/26/79 146/25/1
f 146/1/1 147/2/79 148/25/83
f 147/2/79 143/26/78 148/25/83
s 1
f 148/1/84 143/2/85 142/25/85
s 3
f 148/1/1 142/2/1 146/25/1
f 142/2/1 144/26/1 146/25/1
s 1
f 149/1/86 142/1/85 143/1/85
s 2
f 150/1/77 144/1/87 142/1/1
f 150/1/77 142/1/1 149/1/77
f 147/1/79 145/1/82 144/1/87
s 1
f 147/1/88 144/1/80 150/1/88
# 122 triangles in group

# 222 triangles total

