# Wavefront OBJ exported by MilkShape 3D

v 3.000000 0.000000 0.000000
v 3.000000 1.000000 0.000000
v 2.598076 0.000000 1.500000
v 2.598076 1.000000 1.500000
v 1.500000 0.000000 2.598076
v 1.500000 1.000000 2.598076
v 0.000000 0.000000 3.000000
v 0.000000 1.000000 3.000000
v -1.500000 0.000000 2.598076
v -1.500000 1.000000 2.598076
v -2.598076 0.000000 1.500000
v -2.598076 1.000000 1.500000
v -3.000000 0.000000 0.000000
v -3.000000 1.000000 0.000000
v -2.598076 0.000000 -1.500000
v -2.598076 1.000000 -1.500000
v -1.500000 0.000000 -2.598076
v -1.500000 1.000000 -2.598076
v -0.000000 0.000000 -3.000000
v -0.000000 1.000000 -3.000000
v 1.500000 0.000000 -2.598076
v 1.500000 1.000000 -2.598076
v 2.598076 0.000000 -1.500000
v 2.598076 1.000000 -1.500000
v 0.000000 1.000000 0.000000
v 2.187000 1.000000 -0.000000
v 2.187000 1.642857 -0.000000
v 1.893997 1.000000 1.093500
v 1.893997 1.642857 1.093500
v 1.093500 1.000000 1.893997
v 1.093500 1.642857 1.893997
v 0.000000 1.000000 2.187000
v 0.000000 1.642857 2.187000
v -1.093500 1.000000 1.893997
v -1.093500 1.642857 1.893997
v -1.893997 1.000000 1.093500
v -1.893997 1.642857 1.093500
v -2.187000 1.000000 -0.000000
v -2.187000 1.642857 -0.000000
v -1.893997 1.000000 -1.093500
v -1.893997 1.642857 -1.093500
v -1.093500 1.000000 -1.893997
v -1.093500 1.642857 -1.893997
v 0.000000 1.000000 -2.187000
v 0.000000 1.642857 -2.187000
v 1.093500 1.000000 -1.893997
v 1.093500 1.642857 -1.893997
v 1.893997 1.000000 -1.093500
v 1.893997 1.642857 -1.093500
v 0.000000 2.190476 -0.000000
v -1.074074 2.107936 1.888889
v -1.074074 1.620635 1.888889
v 1.074074 2.107936 1.888889
v 1.074074 1.620635 1.888889
v 1.074074 2.107936 -1.888889
v 1.074074 1.620635 -1.888889
v -1.074074 2.107936 -1.888889
v -1.074074 1.620635 -1.888889
v 1.111111 2.529540 -1.517348
v 1.111111 6.313620 -2.820311
v 0.962250 2.713610 -0.982770
v 0.962250 6.497689 -2.285732
v 0.555556 2.846017 -0.598233
v 0.555556 6.630096 -1.901195
v 0.000000 2.894481 -0.457482
v 0.000000 6.678560 -1.760445
v -0.555556 2.846017 -0.598233
v -0.555556 6.630096 -1.901195
v -0.962250 2.713610 -0.982770
v -0.962250 6.497689 -2.285732
v -1.111111 2.529540 -1.517348
v -1.111111 6.313619 -2.820311
v -0.962250 2.351868 -2.033346
v -0.962250 6.135947 -3.336309
v -0.555556 2.219461 -2.417883
v -0.555556 6.003541 -3.720846
v 0.000000 2.170997 -2.558634
v 0.000000 5.955076 -3.861597
v 0.555556 2.219461 -2.417883
v 0.555556 6.003541 -3.720846
v 0.962250 2.351868 -2.033346
v 0.962250 6.135947 -3.336309
v 1.409091 6.290086 -2.812208
v 1.409091 7.408871 -3.193034
v 1.220308 6.520819 -2.142111
v 1.220308 7.638249 -2.526873
v 0.704545 6.688735 -1.654448
v 0.704545 7.806165 -2.039210
v 0.000000 6.750196 -1.475951
v 0.000000 7.867626 -1.860713
v -0.704545 6.688735 -1.654448
v -0.704545 7.806165 -2.039210
v -1.220308 6.520819 -2.142112
v -1.220308 7.638249 -2.526873
v -1.409091 6.290086 -2.812208
v -1.409091 7.408872 -3.193034
v -1.220308 6.062064 -3.474433
v -1.220308 7.179494 -3.859195
v -0.704545 5.894148 -3.962097
v -0.704545 7.011578 -4.346859
v 0.000000 5.832686 -4.140594
v 0.000000 6.950117 -4.525356
v 0.704545 5.894148 -3.962096
v 0.704545 7.011578 -4.346859
v 1.220308 6.062064 -3.474433
v 1.220308 7.179494 -3.859195
v 1.268207 7.731188 -3.304029
v 1.098303 7.937641 -2.704447
v 0.634076 8.088760 -2.265563
v 0.000000 8.144075 -2.104916
v -0.634076 8.088760 -2.265563
v -1.098303 7.937641 -2.704447
v -1.268207 7.731188 -3.304029
v -1.098303 7.524753 -3.903560
v -0.634076 7.373633 -4.342443
v 0.000000 7.318318 -4.503090
v 0.634076 7.373633 -4.342443
v 1.098303 7.524753 -3.903560
v 0.924509 7.924564 -3.370610
v -0.000000 8.032009 -3.407606
v 0.800681 8.075074 -2.933497
v 0.462255 8.185240 -2.613551
v -0.000000 8.225554 -2.496469
v -0.462255 8.185241 -2.613551
v -0.800681 8.075074 -2.933497
v -0.924509 7.924564 -3.370610
v -0.800681 7.774069 -3.807680
v -0.462255 7.663903 -4.127626
v -0.000000 7.623588 -4.244709
v 0.462255 7.663902 -4.127626
v 0.800681 7.774069 -3.807680
v -1.109192 2.529540 -1.517348
v -1.109192 1.922236 -1.308237
v 1.109337 2.529540 -1.517348
v 1.109337 1.922236 -1.308237
v 1.044399 2.448763 -1.751941
v 1.113922 1.922236 -1.308237
v -1.044253 2.448763 -1.751941
v -1.040578 2.620591 -1.252918
v 1.031062 2.620591 -1.252918
v -1.074074 2.794379 -0.279376
v -1.074074 2.063492 -0.136660
v 1.074074 2.794379 -0.279376
v 1.074074 2.063492 -0.136660
v 1.074074 2.641269 -1.226049
v 1.074074 2.063492 -1.323979
v -1.074074 2.641269 -1.226049
v -1.074074 2.063492 -1.323979
v -1.074074 2.794379 0.279376
v -1.074074 2.063492 0.136660
v 1.074074 2.794379 0.279376
v 1.074074 2.063492 0.136660
v 1.074074 2.641269 1.226049
v 1.074074 2.063492 1.323979
v -1.074074 2.641269 1.226049
v -1.074074 2.063492 1.323979
# 156 vertices

vt 0.000000 1.000000
vt 0.000000 0.000000
vt 0.083333 0.000000
vt 0.083333 1.000000
vt 0.166667 1.000000
vt 0.166667 0.000000
vt 0.250000 0.000000
vt 0.250000 1.000000
vt 0.333333 1.000000
vt 0.333333 0.000000
vt 0.416667 0.000000
vt 0.416667 1.000000
vt 0.500000 1.000000
vt 0.500000 0.000000
vt 0.583333 0.000000
vt 0.583333 1.000000
vt 0.666667 1.000000
vt 0.666667 0.000000
vt 0.750000 0.000000
vt 0.750000 1.000000
vt 0.833333 1.000000
vt 0.833333 0.000000
vt 0.916667 0.000000
vt 0.916667 1.000000
vt 1.000000 1.000000
vt 1.000000 0.000000
# 26 texture coordinates

vn 0.000000 1.000000 0.000000
vn 1.000000 0.000000 0.000000
vn 0.866025 0.000000 0.500000
vn 0.500000 0.000000 0.866025
vn 0.000000 0.000000 1.000000
vn -0.500000 0.000000 0.866025
vn -0.866025 0.000000 0.500000
vn -1.000000 0.000000 0.000000
vn -0.866025 0.000000 -0.500000
vn -0.500000 0.000000 -0.866025
vn 0.000000 0.000000 -1.000000
vn 0.500000 0.000000 -0.866025
vn 0.866025 0.000000 -0.500000
vn 0.242898 0.970052 0.000000
vn 0.210356 0.970052 0.121449
vn 0.121449 0.970052 0.210356
vn 0.000000 0.970052 0.242898
vn -0.121449 0.970052 0.210356
vn -0.210356 0.970052 0.121449
vn -0.242898 0.970052 0.000000
vn -0.210356 0.970052 -0.121449
vn -0.121449 0.970052 -0.210356
vn 0.000000 0.970052 -0.242898
vn 0.121449 0.970052 -0.210356
vn 0.210356 0.970052 -0.121449
vn 0.000000 -1.000000 0.000000
vn 0.999990 -0.001440 -0.004182
vn 0.867111 0.162170 0.470978
vn 0.500000 0.281950 0.818843
vn 0.000000 0.325568 0.945519
vn -0.500000 0.281950 0.818843
vn -0.867111 0.162171 0.470978
vn -0.999990 -0.001440 -0.004182
vn -0.864899 -0.163417 -0.474599
vn -0.500000 -0.281950 -0.818843
vn -0.000000 -0.325568 -0.945519
vn 0.500000 -0.281950 -0.818843
vn 0.864899 -0.163417 -0.474599
vn 0.362119 0.871878 -0.329695
vn -0.000000 0.945518 -0.325570
vn 0.327541 0.932042 -0.154967
vn 0.999999 -0.000476 -0.001398
vn 0.985280 0.169695 -0.020674
vn 0.866209 0.162459 0.472535
vn 0.815677 0.393189 0.424351
vn 0.205187 0.978519 -0.019966
vn 0.461342 0.441765 0.769420
vn 0.027874 0.998848 0.039057
vn -0.050487 0.537033 0.842049
vn -0.156911 0.987592 0.006371
vn -0.523914 0.429996 0.735267
vn -0.299675 0.947759 -0.109310
vn -0.866209 0.162459 0.472535
vn -0.866173 0.364706 0.341663
vn -0.362120 0.890027 -0.276986
vn -0.985249 0.146168 -0.088996
vn -0.999999 -0.000476 -0.001398
vn -0.327540 0.829864 -0.451712
vn -0.865840 -0.162664 -0.473141
vn -0.815673 0.048607 -0.576468
vn -0.205189 0.783374 -0.586705
vn -0.461340 -0.125557 -0.878294
vn -0.027874 0.763055 -0.645733
vn 0.050486 -0.095183 -0.994179
vn 0.156913 0.774309 -0.613045
vn 0.523912 -0.113808 -0.844135
vn 0.299675 0.814140 -0.497365
vn 0.865840 -0.162664 -0.473141
vn 0.866170 0.077054 -0.493774
vn 0.662414 0.738219 0.127438
vn 0.754070 0.614654 -0.231469
vn 0.393243 0.830320 0.394877
vn 0.018738 0.866266 0.499231
vn -0.360796 0.836421 0.412586
vn -0.643678 0.748789 0.158093
vn -0.754073 0.626854 -0.196031
vn -0.662407 0.503272 -0.554919
vn -0.393233 0.411218 -0.822355
vn -0.018736 0.375303 -0.926713
vn 0.360787 0.405126 -0.840063
vn 0.643663 0.492737 -0.585583
vn 0.000000 0.790534 0.612418
vn -0.000000 -0.546635 0.837371
vn -0.000000 -0.826907 -0.562338
vn 0.999958 0.006120 0.006834
vn 0.967414 -0.082434 -0.239406
vn -0.000000 0.869836 -0.493341
vn -0.000000 -0.644402 -0.764687
vn -0.967413 -0.082435 -0.239409
vn -0.999970 -0.002507 -0.007282
vn -0.971198 0.077574 0.225293
vn -0.000000 0.438371 -0.898794
vn 0.962970 0.094248 0.252600
vn 0.000000 0.191644 0.981465
vn 0.000000 0.167112 -0.985938
vn 0.000000 0.987172 -0.159660
vn 0.000000 0.191644 -0.981465
vn 0.000000 0.167112 0.985938
vn 0.000000 0.987172 0.159660
# 99 normals

g LockNut
s 2
f 2/1/1 25/1/1 4/1/1
s 1
f 1/2/2 2/1/2 3/3/3
f 2/1/2 4/4/3 3/3/3
s 2
f 4/1/1 25/1/1 6/1/1
s 1
f 3/3/3 4/4/3 6/5/4
f 3/3/3 6/5/4 5/6/4
s 2
f 6/1/1 25/1/1 8/1/1
s 1
f 5/6/4 6/5/4 7/7/5
f 6/5/4 8/8/5 7/7/5
s 2
f 8/1/1 25/1/1 10/1/1
s 1
f 7/7/5 8/8/5 10/9/6
f 7/7/5 10/9/6 9/10/6
s 2
f 10/1/1 25/1/1 12/1/1
s 1
f 9/10/6 10/9/6 11/11/7
f 10/9/6 12/12/7 11/11/7
s 2
f 12/1/1 25/1/1 14/1/1
s 1
f 11/11/7 12/12/7 14/13/8
f 11/11/7 14/13/8 13/14/8
s 2
f 14/1/1 25/1/1 16/1/1
s 1
f 13/14/8 14/13/8 15/15/9
f 14/13/8 16/16/9 15/15/9
s 2
f 16/1/1 25/1/1 18/1/1
s 1
f 15/15/9 16/16/9 18/17/10
f 15/15/9 18/17/10 17/18/10
s 2
f 18/1/1 25/1/1 20/1/1
s 1
f 17/18/10 18/17/10 19/19/11
f 18/17/10 20/20/11 19/19/11
s 2
f 20/1/1 25/1/1 22/1/1
s 1
f 19/19/11 20/20/11 22/21/12
f 19/19/11 22/21/12 21/22/12
s 2
f 22/1/1 25/1/1 24/1/1
s 1
f 21/22/12 22/21/12 23/23/13
f 22/21/12 24/24/13 23/23/13
s 2
f 24/1/1 25/1/1 2/1/1
s 1
f 23/23/13 24/24/13 2/25/2
f 23/23/13 2/25/2 1/26/2
# 36 triangles in group

g SwitchBase
s 2
f 27/1/14 50/1/1 29/1/15
s 1
f 26/2/2 27/1/2 28/3/3
f 27/1/2 29/4/3 28/3/3
s 2
f 29/1/15 50/1/1 31/1/16
s 1
f 28/3/3 29/4/3 31/5/4
f 28/3/3 31/5/4 30/6/4
s 2
f 31/1/16 50/1/1 33/1/17
s 1
f 30/6/4 31/5/4 32/7/5
f 31/5/4 33/8/5 32/7/5
s 2
f 33/1/17 50/1/1 35/1/18
s 1
f 32/7/5 33/8/5 35/9/6
f 32/7/5 35/9/6 34/10/6
s 2
f 35/1/18 50/1/1 37/1/19
s 1
f 34/10/6 35/9/6 36/11/7
f 35/9/6 37/12/7 36/11/7
s 2
f 37/1/19 50/1/1 39/1/20
s 1
f 36/11/7 37/12/7 39/13/8
f 36/11/7 39/13/8 38/14/8
s 2
f 39/1/20 50/1/1 41/1/21
s 1
f 38/14/8 39/13/8 40/15/9
f 39/13/8 41/16/9 40/15/9
s 2
f 41/1/21 50/1/1 43/1/22
s 1
f 40/15/9 41/16/9 43/17/10
f 40/15/9 43/17/10 42/18/10
s 2
f 43/1/22 50/1/1 45/1/23
s 1
f 42/18/10 43/17/10 44/19/11
f 43/17/10 45/20/11 44/19/11
s 2
f 45/1/23 50/1/1 47/1/24
s 1
f 44/19/11 45/20/11 47/21/12
f 44/19/11 47/21/12 46/22/12
s 2
f 47/1/24 50/1/1 49/1/25
s 1
f 46/22/12 47/21/12 48/23/13
f 47/21/12 49/24/13 48/23/13
s 2
f 49/1/25 50/1/1 27/1/14
s 1
f 48/23/13 49/24/13 27/25/2
f 48/23/13 27/25/2 26/26/2
# 36 triangles in group

g Slider
f 51/1/5 52/2/5 53/25/5
f 52/2/5 54/26/5 53/25/5
s 2
f 53/1/2 54/2/2 55/25/2
f 54/2/2 56/26/2 55/25/2
s 1
f 55/1/11 56/2/11 57/25/11
f 56/2/11 58/26/11 57/25/11
s 2
f 57/1/8 58/2/8 51/25/8
f 58/2/8 52/26/8 51/25/8
s 3
f 57/1/1 51/2/1 55/25/1
f 51/2/1 53/26/1 55/25/1
f 52/1/26 58/2/26 54/25/26
f 58/2/26 56/26/26 54/25/26
# 12 triangles in group

g Switch
s 1
f 59/2/27 60/1/27 61/3/28
f 60/1/27 62/4/28 61/3/28
f 61/3/28 62/4/28 64/5/29
f 61/3/28 64/5/29 63/6/29
f 63/6/29 64/5/29 65/7/30
f 64/5/29 66/8/30 65/7/30
f 65/7/30 66/8/30 68/9/31
f 65/7/30 68/9/31 67/10/31
f 67/10/31 68/9/31 69/11/32
f 68/9/31 70/12/32 69/11/32
f 69/11/32 70/12/32 72/13/33
f 69/11/32 72/13/33 71/14/33
f 71/14/33 72/13/33 73/15/34
f 72/13/33 74/16/34 73/15/34
f 73/15/34 74/16/34 76/17/35
f 73/15/34 76/17/35 75/18/35
f 75/18/35 76/17/35 77/19/36
f 76/17/35 78/20/36 77/19/36
f 77/19/36 78/20/36 80/21/37
f 77/19/36 80/21/37 79/22/37
f 79/22/37 80/21/37 81/23/38
f 80/21/37 82/24/38 81/23/38
f 81/23/38 82/24/38 60/25/27
f 81/23/38 60/25/27 59/26/27
f 119/1/39 120/1/40 121/1/41
f 83/2/42 84/1/43 85/3/44
f 84/1/43 86/4/45 85/3/44
f 121/1/41 120/1/40 122/1/46
f 85/3/44 86/4/45 88/5/47
f 85/3/44 88/5/47 87/6/29
f 122/1/46 120/1/40 123/1/48
f 87/6/29 88/5/47 89/7/30
f 88/5/47 90/8/49 89/7/30
f 123/1/48 120/1/40 124/1/50
f 89/7/30 90/8/49 92/9/51
f 89/7/30 92/9/51 91/10/31
f 124/1/50 120/1/40 125/1/52
f 91/10/31 92/9/51 93/11/53
f 92/9/51 94/12/54 93/11/53
f 125/1/52 120/1/40 126/1/55
f 93/11/53 94/12/54 96/13/56
f 93/11/53 96/13/56 95/14/57
f 126/1/55 120/1/40 127/1/58
f 95/14/57 96/13/56 97/15/59
f 96/13/56 98/16/60 97/15/59
f 127/1/58 120/1/40 128/1/61
f 97/15/59 98/16/60 100/17/62
f 97/15/59 100/17/62 99/18/35
f 128/1/61 120/1/40 129/1/63
f 99/18/35 100/17/62 101/19/36
f 100/17/62 102/20/64 101/19/36
f 129/1/63 120/1/40 130/1/65
f 101/19/36 102/20/64 104/21/66
f 101/19/36 104/21/66 103/22/37
f 130/1/65 120/1/40 131/1/67
f 103/22/37 104/21/66 105/23/68
f 104/21/66 106/24/69 105/23/68
f 131/1/67 120/1/40 119/1/39
f 105/23/68 106/24/69 84/25/43
f 105/23/68 84/25/43 83/26/42
f 108/1/70 86/1/45 84/1/43
f 108/1/70 84/1/43 107/1/71
f 109/1/72 88/1/47 86/1/45
f 109/1/72 86/1/45 108/1/70
f 110/1/73 90/1/49 88/1/47
f 110/1/73 88/1/47 109/1/72
f 111/1/74 92/1/51 90/1/49
f 111/1/74 90/1/49 110/1/73
f 112/1/75 94/1/54 92/1/51
f 112/1/75 92/1/51 111/1/74
f 113/1/76 96/1/56 94/1/54
f 113/1/76 94/1/54 112/1/75
f 114/1/77 98/1/60 96/1/56
f 114/1/77 96/1/56 113/1/76
f 115/1/78 100/1/62 98/1/60
f 115/1/78 98/1/60 114/1/77
f 116/1/79 102/1/64 100/1/62
f 116/1/79 100/1/62 115/1/78
f 117/1/80 104/1/66 102/1/64
f 117/1/80 102/1/64 116/1/79
f 118/1/81 106/1/69 104/1/66
f 118/1/81 104/1/66 117/1/80
f 107/1/71 84/1/43 106/1/69
f 107/1/71 106/1/69 118/1/81
f 121/1/41 108/1/70 107/1/71
f 121/1/41 107/1/71 119/1/39
f 122/1/46 109/1/72 108/1/70
f 122/1/46 108/1/70 121/1/41
f 123/1/48 110/1/73 109/1/72
f 123/1/48 109/1/72 122/1/46
f 124/1/50 111/1/74 110/1/73
f 124/1/50 110/1/73 123/1/48
f 125/1/52 112/1/75 111/1/74
f 125/1/52 111/1/74 124/1/50
f 126/1/55 113/1/76 112/1/75
f 126/1/55 112/1/75 125/1/52
f 127/1/58 114/1/77 113/1/76
f 127/1/58 113/1/76 126/1/55
f 128/1/61 115/1/78 114/1/77
f 128/1/61 114/1/77 127/1/58
f 129/1/63 116/1/79 115/1/78
f 129/1/63 115/1/78 128/1/61
f 130/1/65 117/1/80 116/1/79
f 130/1/65 116/1/79 129/1/63
f 131/1/67 118/1/81 117/1/80
f 131/1/67 117/1/80 130/1/65
f 119/1/39 107/1/71 118/1/81
f 119/1/39 118/1/81 131/1/67
s 2
f 139/1/82 133/2/83 140/25/82
f 133/2/83 137/26/84 140/25/82
s 1
f 134/1/85 135/2/86 136/25/86
s 2
f 135/2/87 137/26/84 136/25/40
f 136/1/40 137/2/84 138/25/88
f 137/2/84 133/26/83 138/25/88
s 1
f 138/1/89 133/2/90 132/25/90
s 3
f 138/1/40 132/2/40 136/25/40
f 132/2/40 134/26/40 136/25/40
s 1
f 139/1/91 132/1/90 133/1/90
s 2
f 140/1/82 134/1/92 132/1/40
f 140/1/82 132/1/40 139/1/82
f 137/1/84 135/1/87 134/1/92
s 1
f 137/1/93 134/1/85 140/1/93
# 122 triangles in group

g LockTine
f 141/1/94 142/2/94 143/25/94
f 142/2/94 144/26/94 143/25/94
s 3
f 143/1/2 144/2/2 145/25/2
f 144/2/2 146/26/2 145/25/2
s 1
f 145/1/95 146/2/95 147/25/95
f 146/2/95 148/26/95 147/25/95
s 3
f 147/1/8 148/2/8 141/25/8
f 148/2/8 142/26/8 141/25/8
s 2
f 147/1/96 141/2/96 145/25/96
f 141/2/96 143/26/96 145/25/96
f 142/1/26 148/2/26 144/25/26
f 148/2/26 146/26/26 144/25/26
s 1
f 151/25/97 150/2/97 149/1/97
f 151/25/97 152/26/97 150/2/97
s 3
f 153/25/2 152/2/2 151/1/2
f 153/25/2 154/26/2 152/2/2
s 1
f 155/25/98 154/2/98 153/1/98
f 155/25/98 156/26/98 154/2/98
s 3
f 149/25/8 156/2/8 155/1/8
f 149/25/8 150/26/8 156/2/8
s 2
f 153/25/99 149/2/99 155/1/99
f 153/25/99 151/26/99 149/2/99
f 152/25/26 156/2/26 150/1/26
f 152/25/26 154/26/26 156/2/26
# 24 triangles in group

# 230 triangles total

