# Wavefront OBJ exported by MilkShape 3D

v 3.000000 0.000000 0.000000
v 3.000000 1.000000 0.000000
v 2.598076 0.000000 1.500000
v 2.598076 1.000000 1.500000
v 1.500000 0.000000 2.598076
v 1.500000 1.000000 2.598076
v 0.000000 0.000000 3.000000
v 0.000000 1.000000 3.000000
v -1.500000 0.000000 2.598076
v -1.500000 1.000000 2.598076
v -2.598076 0.000000 1.500000
v -2.598076 1.000000 1.500000
v -3.000000 0.000000 0.000000
v -3.000000 1.000000 0.000000
v -2.598076 0.000000 -1.500000
v -2.598076 1.000000 -1.500000
v -1.500000 0.000000 -2.598076
v -1.500000 1.000000 -2.598076
v -0.000000 0.000000 -3.000000
v -0.000000 1.000000 -3.000000
v 1.500000 0.000000 -2.598076
v 1.500000 1.000000 -2.598076
v 2.598076 0.000000 -1.500000
v 2.598076 1.000000 -1.500000
v 0.000000 1.000000 0.000000
v 2.187000 1.000000 -0.000000
v 2.187000 1.642857 -0.000000
v 1.893997 1.000000 1.093500
v 1.893997 1.642857 1.093500
v 1.093500 1.000000 1.893997
v 1.093500 1.642857 1.893997
v 0.000000 1.000000 2.187000
v 0.000000 1.642857 2.187000
v -1.093500 1.000000 1.893997
v -1.093500 1.642857 1.893997
v -1.893997 1.000000 1.093500
v -1.893997 1.642857 1.093500
v -2.187000 1.000000 -0.000000
v -2.187000 1.642857 -0.000000
v -1.893997 1.000000 -1.093500
v -1.893997 1.642857 -1.093500
v -1.093500 1.000000 -1.893997
v -1.093500 1.642857 -1.893997
v 0.000000 1.000000 -2.187000
v 0.000000 1.642857 -2.187000
v 1.093500 1.000000 -1.893997
v 1.093500 1.642857 -1.893997
v 1.893997 1.000000 -1.093500
v 1.893997 1.642857 -1.093500
v 0.000000 2.190476 -0.000000
v -1.074074 2.107936 1.888889
v -1.074074 1.620635 1.888889
v 1.074074 2.107936 1.888889
v 1.074074 1.620635 1.888889
v 1.074074 2.107936 -1.888889
v 1.074074 1.620635 -1.888889
v -1.074074 2.107936 -1.888889
v -1.074074 1.620635 -1.888889
v -1.074074 3.041269 -0.009353
v -1.074074 2.063492 -0.009353
v 1.074074 3.041269 -0.009353
v 1.074074 2.063492 -0.009353
v 1.074074 2.641269 -1.226049
v 1.074074 2.063492 -1.323979
v -1.074074 2.641269 -1.226049
v -1.074074 2.063492 -1.323979
v -1.074097 2.641240 1.263101
v -1.074097 2.063485 1.361032
v 1.074097 2.641240 1.263101
v 1.074097 2.063485 1.361032
v 1.111111 2.571932 1.570786
v 1.111111 6.332695 2.939590
v 0.962251 2.378561 2.102070
v 0.962251 6.139324 3.470875
v 0.555556 2.239463 2.484238
v 0.555556 6.000226 3.853042
v 0.000000 2.188550 2.624121
v 0.000000 5.949313 3.992926
v -0.555556 2.239463 2.484238
v -0.555556 6.000226 3.853042
v -0.962250 2.378561 2.102070
v -0.962250 6.139324 3.470875
v -1.111111 2.571932 1.570786
v -1.111111 6.332695 2.939590
v -0.962250 2.758583 1.057967
v -0.962250 6.519346 2.426771
v -0.555556 2.897680 0.675799
v -0.555556 6.658443 2.044604
v 0.000000 2.948594 0.535916
v 0.000000 6.709357 1.904720
v 0.555556 2.897680 0.675799
v 0.555556 6.658443 2.044604
v 0.962251 2.758583 1.057967
v 0.962251 6.519346 2.426771
v 1.409091 6.309308 2.931077
v 1.409091 7.418428 3.339193
v 1.220309 6.066916 3.597045
v 1.220309 7.177460 4.001250
v 0.704546 5.890514 4.081704
v 0.704546 7.001059 4.485909
v 0.000000 5.825947 4.259101
v 0.000000 6.936492 4.663306
v -0.704545 5.890514 4.081704
v -0.704545 7.001059 4.485909
v -1.220308 6.066916 3.597045
v -1.220308 7.177460 4.001250
v -1.409091 6.309308 2.931077
v -1.409091 7.418429 3.339194
v -1.220308 6.548852 2.272932
v -1.220308 7.659397 2.677137
v -0.704545 6.725254 1.788274
v -0.704545 7.835799 2.192478
v 0.000000 6.789821 1.610876
v 0.000000 7.900366 2.015081
v 0.704545 6.725254 1.788274
v 0.704545 7.835798 2.192478
v 1.220309 6.548852 2.272932
v 1.220309 7.659398 2.677137
v 1.268207 7.738768 3.455774
v 1.098303 7.521882 4.051662
v 0.634076 7.363126 4.487842
v 0.000000 7.305016 4.647499
v -0.634076 7.363126 4.487842
v -1.098303 7.521882 4.051662
v -1.268207 7.738767 3.455774
v -1.098303 7.955634 2.859938
v -0.634076 8.114390 2.423758
v 0.000000 8.172501 2.264101
v 0.634076 8.114390 2.423758
v 1.098303 7.955634 2.859938
v 0.924509 7.930950 3.525727
v 0.000000 8.037732 3.564593
v 0.800681 7.772834 3.960146
v 0.462255 7.657101 4.278121
v 0.000000 7.614749 4.394482
v -0.462255 7.657101 4.278121
v -0.800681 7.772834 3.960146
v -0.924509 7.930950 3.525727
v -0.800681 8.089049 3.091350
v -0.462255 8.204783 2.773375
v 0.000000 8.247135 2.657014
v 0.462255 8.204782 2.773375
v 0.800681 8.089049 3.091350
v -1.109192 2.571932 1.570786
v -1.109192 1.968370 1.351107
v 1.109337 2.571932 1.570786
v 1.109337 1.968370 1.351107
v 1.044399 2.656791 1.337638
v 1.113922 1.968370 1.351107
v -1.044253 2.656791 1.337638
v -1.040578 2.476281 1.833587
v 1.031062 2.476281 1.833587
# 152 vertices

vt 0.000000 1.000000
vt 0.000000 0.000000
vt 0.083333 0.000000
vt 0.083333 1.000000
vt 0.166667 1.000000
vt 0.166667 0.000000
vt 0.250000 0.000000
vt 0.250000 1.000000
vt 0.333333 1.000000
vt 0.333333 0.000000
vt 0.416667 0.000000
vt 0.416667 1.000000
vt 0.500000 1.000000
vt 0.500000 0.000000
vt 0.583333 0.000000
vt 0.583333 1.000000
vt 0.666667 1.000000
vt 0.666667 0.000000
vt 0.750000 0.000000
vt 0.750000 1.000000
vt 0.833333 1.000000
vt 0.833333 0.000000
vt 0.916667 0.000000
vt 0.916667 1.000000
vt 1.000000 1.000000
vt 1.000000 0.000000
# 26 texture coordinates

vn 0.000000 1.000000 0.000000
vn 1.000000 0.000000 0.000000
vn 0.866025 0.000000 0.500000
vn 0.500000 0.000000 0.866025
vn 0.000000 0.000000 1.000000
vn -0.500000 0.000000 0.866025
vn -0.866025 0.000000 0.500000
vn -1.000000 0.000000 0.000000
vn -0.866025 0.000000 -0.500000
vn -0.500000 0.000000 -0.866025
vn 0.000000 0.000000 -1.000000
vn 0.500000 0.000000 -0.866025
vn 0.866025 0.000000 -0.500000
vn 0.242898 0.970052 0.000000
vn 0.210356 0.970052 0.121449
vn 0.121449 0.970052 0.210356
vn 0.000000 0.970052 0.242898
vn -0.121449 0.970052 0.210356
vn -0.210356 0.970052 0.121449
vn -0.242898 0.970052 0.000000
vn -0.210356 0.970052 -0.121449
vn -0.121449 0.970052 -0.210356
vn 0.000000 0.970052 -0.242898
vn 0.121449 0.970052 -0.210356
vn 0.210356 0.970052 -0.121449
vn 0.000000 -1.000000 0.000000
vn 0.000000 0.167118 0.985937
vn 0.000000 0.167112 -0.985938
vn 0.000000 0.949979 -0.312314
vn 0.000000 0.999979 -0.006517
vn 0.000000 0.953969 0.299905
vn 0.999990 0.001513 -0.004156
vn 0.867111 -0.170365 0.468076
vn 0.500000 -0.296198 0.813798
vn 0.000000 -0.342020 0.939693
vn -0.500000 -0.296198 0.813798
vn -0.867111 -0.170365 0.468076
vn -0.999990 0.001513 -0.004156
vn -0.864899 0.171675 -0.471675
vn -0.500000 0.296198 -0.813798
vn -0.000000 0.342020 -0.939693
vn 0.500000 0.296198 -0.813798
vn 0.864899 0.171675 -0.471675
vn 0.362119 0.885060 0.292469
vn 0.000000 0.939693 0.342018
vn 0.327541 0.821857 0.466121
vn 0.999999 0.000510 -0.001386
vn 0.985280 0.144889 0.090726
vn 0.866209 -0.171122 0.469467
vn 0.815677 0.038513 0.577224
vn 0.205187 0.773018 0.600285
vn 0.461342 -0.140896 0.875964
vn 0.027874 0.751672 0.658948
vn -0.050487 -0.112565 0.992361
vn -0.156911 0.763494 0.626463
vn -0.523914 -0.128549 0.842015
vn -0.299675 0.805338 0.511494
vn -0.866209 -0.171122 0.469467
vn -0.866173 0.068414 0.495038
vn -0.362120 0.865994 0.344853
vn -0.985249 0.169600 0.022824
vn -0.999999 0.000510 -0.001386
vn -0.327540 0.929197 0.171204
vn -0.865840 0.171343 -0.470067
vn -0.815673 0.400558 -0.417411
vn -0.205189 0.978021 0.037037
vn -0.461340 0.455152 -0.761579
vn -0.027874 0.999377 -0.021623
vn 0.050486 0.551686 -0.832523
vn 0.156913 0.987553 0.010862
vn 0.523912 0.442786 -0.727638
vn 0.299675 0.945707 0.125829
vn 0.865840 0.171343 -0.470067
vn 0.866170 0.370625 -0.335243
vn 0.662414 0.493505 0.563614
vn 0.754070 0.623344 0.206929
vn 0.393243 0.396776 0.829414
vn 0.018738 0.359039 0.933134
vn -0.360796 0.390373 0.847016
vn -0.643678 0.482427 0.594090
vn -0.754073 0.610523 0.242148
vn -0.662407 0.740337 -0.114534
vn -0.393233 0.837101 -0.380303
vn -0.018736 0.874864 -0.484005
vn 0.360787 0.843510 -0.397898
vn 0.643663 0.751448 -0.144995
vn 0.000000 0.228953 0.973437
vn 0.000000 -0.951789 0.306752
vn -0.000000 -0.288737 -0.957408
vn 0.999958 0.000455 0.009163
vn 0.967414 0.086600 -0.237931
vn -0.000000 0.986459 0.164007
vn -0.000000 -0.019562 -0.999809
vn -0.967413 0.086601 -0.237934
vn -0.999970 0.002634 -0.007237
vn -0.971198 -0.081495 0.223905
vn -0.000000 0.906308 -0.422619
vn 0.962970 -0.085721 0.255619
# 98 normals

g LockNut
s 2
f 2/1/1 25/1/1 4/1/1
s 1
f 1/2/2 2/1/2 3/3/3
f 2/1/2 4/4/3 3/3/3
s 2
f 4/1/1 25/1/1 6/1/1
s 1
f 3/3/3 4/4/3 6/5/4
f 3/3/3 6/5/4 5/6/4
s 2
f 6/1/1 25/1/1 8/1/1
s 1
f 5/6/4 6/5/4 7/7/5
f 6/5/4 8/8/5 7/7/5
s 2
f 8/1/1 25/1/1 10/1/1
s 1
f 7/7/5 8/8/5 10/9/6
f 7/7/5 10/9/6 9/10/6
s 2
f 10/1/1 25/1/1 12/1/1
s 1
f 9/10/6 10/9/6 11/11/7
f 10/9/6 12/12/7 11/11/7
s 2
f 12/1/1 25/1/1 14/1/1
s 1
f 11/11/7 12/12/7 14/13/8
f 11/11/7 14/13/8 13/14/8
s 2
f 14/1/1 25/1/1 16/1/1
s 1
f 13/14/8 14/13/8 15/15/9
f 14/13/8 16/16/9 15/15/9
s 2
f 16/1/1 25/1/1 18/1/1
s 1
f 15/15/9 16/16/9 18/17/10
f 15/15/9 18/17/10 17/18/10
s 2
f 18/1/1 25/1/1 20/1/1
s 1
f 17/18/10 18/17/10 19/19/11
f 18/17/10 20/20/11 19/19/11
s 2
f 20/1/1 25/1/1 22/1/1
s 1
f 19/19/11 20/20/11 22/21/12
f 19/19/11 22/21/12 21/22/12
s 2
f 22/1/1 25/1/1 24/1/1
s 1
f 21/22/12 22/21/12 23/23/13
f 22/21/12 24/24/13 23/23/13
s 2
f 24/1/1 25/1/1 2/1/1
s 1
f 23/23/13 24/24/13 2/25/2
f 23/23/13 2/25/2 1/26/2
# 36 triangles in group

g SwitchBase
s 2
f 27/1/14 50/1/1 29/1/15
s 1
f 26/2/2 27/1/2 28/3/3
f 27/1/2 29/4/3 28/3/3
s 2
f 29/1/15 50/1/1 31/1/16
s 1
f 28/3/3 29/4/3 31/5/4
f 28/3/3 31/5/4 30/6/4
s 2
f 31/1/16 50/1/1 33/1/17
s 1
f 30/6/4 31/5/4 32/7/5
f 31/5/4 33/8/5 32/7/5
s 2
f 33/1/17 50/1/1 35/1/18
s 1
f 32/7/5 33/8/5 35/9/6
f 32/7/5 35/9/6 34/10/6
s 2
f 35/1/18 50/1/1 37/1/19
s 1
f 34/10/6 35/9/6 36/11/7
f 35/9/6 37/12/7 36/11/7
s 2
f 37/1/19 50/1/1 39/1/20
s 1
f 36/11/7 37/12/7 39/13/8
f 36/11/7 39/13/8 38/14/8
s 2
f 39/1/20 50/1/1 41/1/21
s 1
f 38/14/8 39/13/8 40/15/9
f 39/13/8 41/16/9 40/15/9
s 2
f 41/1/21 50/1/1 43/1/22
s 1
f 40/15/9 41/16/9 43/17/10
f 40/15/9 43/17/10 42/18/10
s 2
f 43/1/22 50/1/1 45/1/23
s 1
f 42/18/10 43/17/10 44/19/11
f 43/17/10 45/20/11 44/19/11
s 2
f 45/1/23 50/1/1 47/1/24
s 1
f 44/19/11 45/20/11 47/21/12
f 44/19/11 47/21/12 46/22/12
s 2
f 47/1/24 50/1/1 49/1/25
s 1
f 46/22/12 47/21/12 48/23/13
f 47/21/12 49/24/13 48/23/13
s 2
f 49/1/25 50/1/1 27/1/14
s 1
f 48/23/13 49/24/13 27/25/2
f 48/23/13 27/25/2 26/26/2
# 36 triangles in group

g Slider
f 51/1/5 52/2/5 53/25/5
f 52/2/5 54/26/5 53/25/5
s 2
f 53/1/2 54/2/2 55/25/2
f 54/2/2 56/26/2 55/25/2
s 1
f 55/1/11 56/2/11 57/25/11
f 56/2/11 58/26/11 57/25/11
s 2
f 57/1/8 58/2/8 51/25/8
f 58/2/8 52/26/8 51/25/8
s 3
f 57/1/1 51/2/1 55/25/1
f 51/2/1 53/26/1 55/25/1
f 52/1/26 58/2/26 54/25/26
f 58/2/26 56/26/26 54/25/26
# 12 triangles in group

g LockingTine
s 1
f 67/1/27 68/2/27 69/25/27
f 68/2/27 70/26/27 69/25/27
s 3
f 61/1/2 62/2/2 63/25/2
f 62/2/2 64/26/2 63/25/2
s 1
f 63/1/28 64/2/28 65/25/28
f 64/2/28 66/26/28 65/25/28
s 3
f 65/1/8 66/2/8 59/25/8
f 66/2/8 60/26/8 59/25/8
s 2
f 65/1/29 59/2/30 63/25/29
f 59/2/30 61/26/30 63/25/29
f 60/1/26 66/2/26 62/25/26
f 66/2/26 64/26/26 62/25/26
s 3
f 67/1/8 59/1/8 60/1/8
f 67/1/8 60/1/8 68/1/8
s 2
f 69/1/31 61/1/30 59/1/30
f 69/1/31 59/1/30 67/1/31
f 68/1/26 60/1/26 62/1/26
f 68/1/26 62/1/26 70/1/26
s 3
f 70/1/2 62/1/2 61/1/2
f 70/1/2 61/1/2 69/1/2
# 20 triangles in group

g Switch
s 1
f 71/2/32 72/1/32 73/3/33
f 72/1/32 74/4/33 73/3/33
f 73/3/33 74/4/33 76/5/34
f 73/3/33 76/5/34 75/6/34
f 75/6/34 76/5/34 77/7/35
f 76/5/34 78/8/35 77/7/35
f 77/7/35 78/8/35 80/9/36
f 77/7/35 80/9/36 79/10/36
f 79/10/36 80/9/36 81/11/37
f 80/9/36 82/12/37 81/11/37
f 81/11/37 82/12/37 84/13/38
f 81/11/37 84/13/38 83/14/38
f 83/14/38 84/13/38 85/15/39
f 84/13/38 86/16/39 85/15/39
f 85/15/39 86/16/39 88/17/40
f 85/15/39 88/17/40 87/18/40
f 87/18/40 88/17/40 89/19/41
f 88/17/40 90/20/41 89/19/41
f 89/19/41 90/20/41 92/21/42
f 89/19/41 92/21/42 91/22/42
f 91/22/42 92/21/42 93/23/43
f 92/21/42 94/24/43 93/23/43
f 93/23/43 94/24/43 72/25/32
f 93/23/43 72/25/32 71/26/32
f 131/1/44 132/1/45 133/1/46
f 95/2/47 96/1/48 97/3/49
f 96/1/48 98/4/50 97/3/49
f 133/1/46 132/1/45 134/1/51
f 97/3/49 98/4/50 100/5/52
f 97/3/49 100/5/52 99/6/34
f 134/1/51 132/1/45 135/1/53
f 99/6/34 100/5/52 101/7/35
f 100/5/52 102/8/54 101/7/35
f 135/1/53 132/1/45 136/1/55
f 101/7/35 102/8/54 104/9/56
f 101/7/35 104/9/56 103/10/36
f 136/1/55 132/1/45 137/1/57
f 103/10/36 104/9/56 105/11/58
f 104/9/56 106/12/59 105/11/58
f 137/1/57 132/1/45 138/1/60
f 105/11/58 106/12/59 108/13/61
f 105/11/58 108/13/61 107/14/62
f 138/1/60 132/1/45 139/1/63
f 107/14/62 108/13/61 109/15/64
f 108/13/61 110/16/65 109/15/64
f 139/1/63 132/1/45 140/1/66
f 109/15/64 110/16/65 112/17/67
f 109/15/64 112/17/67 111/18/40
f 140/1/66 132/1/45 141/1/68
f 111/18/40 112/17/67 113/19/41
f 112/17/67 114/20/69 113/19/41
f 141/1/68 132/1/45 142/1/70
f 113/19/41 114/20/69 116/21/71
f 113/19/41 116/21/71 115/22/42
f 142/1/70 132/1/45 143/1/72
f 115/22/42 116/21/71 117/23/73
f 116/21/71 118/24/74 117/23/73
f 143/1/72 132/1/45 131/1/44
f 117/23/73 118/24/74 96/25/48
f 117/23/73 96/25/48 95/26/47
f 120/1/75 98/1/50 96/1/48
f 120/1/75 96/1/48 119/1/76
f 121/1/77 100/1/52 98/1/50
f 121/1/77 98/1/50 120/1/75
f 122/1/78 102/1/54 100/1/52
f 122/1/78 100/1/52 121/1/77
f 123/1/79 104/1/56 102/1/54
f 123/1/79 102/1/54 122/1/78
f 124/1/80 106/1/59 104/1/56
f 124/1/80 104/1/56 123/1/79
f 125/1/81 108/1/61 106/1/59
f 125/1/81 106/1/59 124/1/80
f 126/1/82 110/1/65 108/1/61
f 126/1/82 108/1/61 125/1/81
f 127/1/83 112/1/67 110/1/65
f 127/1/83 110/1/65 126/1/82
f 128/1/84 114/1/69 112/1/67
f 128/1/84 112/1/67 127/1/83
f 129/1/85 116/1/71 114/1/69
f 129/1/85 114/1/69 128/1/84
f 130/1/86 118/1/74 116/1/71
f 130/1/86 116/1/71 129/1/85
f 119/1/76 96/1/48 118/1/74
f 119/1/76 118/1/74 130/1/86
f 133/1/46 120/1/75 119/1/76
f 133/1/46 119/1/76 131/1/44
f 134/1/51 121/1/77 120/1/75
f 134/1/51 120/1/75 133/1/46
f 135/1/53 122/1/78 121/1/77
f 135/1/53 121/1/77 134/1/51
f 136/1/55 123/1/79 122/1/78
f 136/1/55 122/1/78 135/1/53
f 137/1/57 124/1/80 123/1/79
f 137/1/57 123/1/79 136/1/55
f 138/1/60 125/1/81 124/1/80
f 138/1/60 124/1/80 137/1/57
f 139/1/63 126/1/82 125/1/81
f 139/1/63 125/1/81 138/1/60
f 140/1/66 127/1/83 126/1/82
f 140/1/66 126/1/82 139/1/63
f 141/1/68 128/1/84 127/1/83
f 141/1/68 127/1/83 140/1/66
f 142/1/70 129/1/85 128/1/84
f 142/1/70 128/1/84 141/1/68
f 143/1/72 130/1/86 129/1/85
f 143/1/72 129/1/85 142/1/70
f 131/1/44 119/1/76 130/1/86
f 131/1/44 130/1/86 143/1/72
s 2
f 151/1/87 145/2/88 152/25/87
f 145/2/88 149/26/89 152/25/87
s 1
f 146/1/90 147/2/91 148/25/91
s 2
f 147/2/92 149/26/89 148/25/45
f 148/1/45 149/2/89 150/25/93
f 149/2/89 145/26/88 150/25/93
s 1
f 150/1/94 145/2/95 144/25/95
s 3
f 150/1/45 144/2/45 148/25/45
f 144/2/45 146/26/45 148/25/45
s 1
f 151/1/96 144/1/95 145/1/95
s 2
f 152/1/87 146/1/97 144/1/45
f 152/1/87 144/1/45 151/1/87
f 149/1/89 147/1/92 146/1/97
s 1
f 149/1/98 146/1/90 152/1/98
# 122 triangles in group

# 226 triangles total

