# Wavefront OBJ exported by MilkShape 3D

v 3.000000 0.000000 0.000000
v 3.000000 1.000000 0.000000
v 2.598076 0.000000 1.500000
v 2.598076 1.000000 1.500000
v 1.500000 0.000000 2.598076
v 1.500000 1.000000 2.598076
v 0.000000 0.000000 3.000000
v 0.000000 1.000000 3.000000
v -1.500000 0.000000 2.598076
v -1.500000 1.000000 2.598076
v -2.598076 0.000000 1.500000
v -2.598076 1.000000 1.500000
v -3.000000 0.000000 0.000000
v -3.000000 1.000000 0.000000
v -2.598076 0.000000 -1.500000
v -2.598076 1.000000 -1.500000
v -1.500000 0.000000 -2.598076
v -1.500000 1.000000 -2.598076
v -0.000000 0.000000 -3.000000
v -0.000000 1.000000 -3.000000
v 1.500000 0.000000 -2.598076
v 1.500000 1.000000 -2.598076
v 2.598076 0.000000 -1.500000
v 2.598076 1.000000 -1.500000
v 0.000000 1.000000 0.000000
v 2.187000 1.000000 -0.000000
v 2.187000 1.642857 -0.000000
v 1.893997 1.000000 1.093500
v 1.893997 1.642857 1.093500
v 1.093500 1.000000 1.893997
v 1.093500 1.642857 1.893997
v 0.000000 1.000000 2.187000
v 0.000000 1.642857 2.187000
v -1.093500 1.000000 1.893997
v -1.093500 1.642857 1.893997
v -1.893997 1.000000 1.093500
v -1.893997 1.642857 1.093500
v -2.187000 1.000000 -0.000000
v -2.187000 1.642857 -0.000000
v -1.893997 1.000000 -1.093500
v -1.893997 1.642857 -1.093500
v -1.093500 1.000000 -1.893997
v -1.093500 1.642857 -1.893997
v 0.000000 1.000000 -2.187000
v 0.000000 1.642857 -2.187000
v 1.093500 1.000000 -1.893997
v 1.093500 1.642857 -1.893997
v 1.893997 1.000000 -1.093500
v 1.893997 1.642857 -1.093500
v 0.000000 2.190476 -0.000000
v -1.074074 2.107936 1.888889
v -1.074074 1.620635 1.888889
v 1.074074 2.107936 1.888889
v 1.074074 1.620635 1.888889
v 1.074074 2.107936 -1.888889
v 1.074074 1.620635 -1.888889
v -1.074074 2.107936 -1.888889
v -1.074074 1.620635 -1.888889
v -1.074074 3.041269 -0.009353
v -1.074074 2.063492 -0.009353
v 1.074074 3.041269 -0.009353
v 1.074074 2.063492 -0.009353
v 1.074074 2.641269 -1.226049
v 1.074074 2.063492 -1.323979
v -1.074074 2.641269 -1.226049
v -1.074074 2.063492 -1.323979
v -1.074097 2.641240 1.263101
v -1.074097 2.063485 1.361032
v 1.074097 2.641240 1.263101
v 1.074097 2.063485 1.361032
v 1.111111 2.571932 1.570786
v 1.111111 6.332695 2.939590
v 0.962251 2.378561 2.102070
v 0.962251 6.139324 3.470875
v 0.555556 2.239463 2.484238
v 0.555556 6.000226 3.853042
v 0.000000 2.188550 2.624121
v 0.000000 5.949313 3.992926
v -0.555556 2.239463 2.484238
v -0.555556 6.000226 3.853042
v -0.962250 2.378561 2.102070
v -0.962250 6.139324 3.470875
v -1.111111 2.571932 1.570786
v -1.111111 6.332695 2.939590
v -0.962250 2.758583 1.057967
v -0.962250 6.519346 2.426771
v -0.555556 2.897680 0.675799
v -0.555556 6.658443 2.044604
v 0.000000 2.948594 0.535916
v 0.000000 6.709357 1.904720
v 0.555556 2.897680 0.675799
v 0.555556 6.658443 2.044604
v 0.962251 2.758583 1.057967
v 0.962251 6.519346 2.426771
v -1.109192 2.571932 1.570786
v -1.109192 1.968370 1.351107
v 1.109337 2.571932 1.570786
v 1.109337 1.968370 1.351107
v 1.044399 2.656791 1.337638
v 1.113922 1.968370 1.351107
v -1.044253 2.656791 1.337638
v -1.040578 2.476281 1.833587
v 1.031062 2.476281 1.833587
v 2.363636 4.729261 2.357999
v 2.363636 7.844128 3.491716
v 2.046969 4.325056 3.468544
v 2.046969 7.439923 4.602262
v 1.181818 4.029157 4.281520
v 1.181818 7.144024 5.415238
v 0.000000 3.920850 4.579091
v 0.000000 7.035717 5.712808
v -1.181818 4.029157 4.281520
v -1.181818 7.144024 5.415238
v -2.046969 4.325056 3.468544
v -2.046969 7.439923 4.602262
v -2.363636 4.729260 2.357999
v -2.363636 7.844128 3.491717
v -2.046969 5.133466 1.247453
v -2.046969 8.248333 2.381171
v -1.181818 5.429365 0.434477
v -1.181818 8.544231 1.568195
v 0.000000 5.537671 0.136907
v 0.000000 8.652538 1.270625
v 1.181818 5.429365 0.434477
v 1.181818 8.544232 1.568195
v 2.046969 5.133466 1.247453
v 2.046969 8.248333 2.381171
v 0.000000 7.844128 3.491716
v 0.000000 4.729260 2.357999
# 129 vertices

vt 0.000000 1.000000
vt 0.000000 0.000000
vt 0.083333 0.000000
vt 0.083333 1.000000
vt 0.166667 1.000000
vt 0.166667 0.000000
vt 0.250000 0.000000
vt 0.250000 1.000000
vt 0.333333 1.000000
vt 0.333333 0.000000
vt 0.416667 0.000000
vt 0.416667 1.000000
vt 0.500000 1.000000
vt 0.500000 0.000000
vt 0.583333 0.000000
vt 0.583333 1.000000
vt 0.666667 1.000000
vt 0.666667 0.000000
vt 0.750000 0.000000
vt 0.750000 1.000000
vt 0.833333 1.000000
vt 0.833333 0.000000
vt 0.916667 0.000000
vt 0.916667 1.000000
vt 1.000000 1.000000
vt 1.000000 0.000000
# 26 texture coordinates

vn 0.000000 1.000000 0.000000
vn 1.000000 0.000000 0.000000
vn 0.866025 0.000000 0.500000
vn 0.500000 0.000000 0.866025
vn 0.000000 0.000000 1.000000
vn -0.500000 0.000000 0.866025
vn -0.866025 0.000000 0.500000
vn -1.000000 0.000000 0.000000
vn -0.866025 0.000000 -0.500000
vn -0.500000 0.000000 -0.866025
vn 0.000000 0.000000 -1.000000
vn 0.500000 0.000000 -0.866025
vn 0.866025 0.000000 -0.500000
vn 0.242898 0.970052 0.000000
vn 0.210356 0.970052 0.121449
vn 0.121449 0.970052 0.210356
vn 0.000000 0.970052 0.242898
vn -0.121449 0.970052 0.210356
vn -0.210356 0.970052 0.121449
vn -0.242898 0.970052 0.000000
vn -0.210356 0.970052 -0.121449
vn -0.121449 0.970052 -0.210356
vn 0.000000 0.970052 -0.242898
vn 0.121449 0.970052 -0.210356
vn 0.210356 0.970052 -0.121449
vn 0.000000 -1.000000 0.000000
vn 0.000000 0.167118 0.985937
vn 0.000000 0.167112 -0.985938
vn 0.000000 0.949979 -0.312314
vn 0.000000 0.999979 -0.006517
vn 0.000000 0.953969 0.299905
vn 0.999990 0.001513 -0.004156
vn 0.867111 -0.170365 0.468076
vn 0.500000 -0.296198 0.813798
vn 0.000000 -0.342020 0.939693
vn -0.500000 -0.296198 0.813798
vn -0.867111 -0.170365 0.468076
vn -0.999990 0.001513 -0.004156
vn -0.864899 0.171675 -0.471675
vn -0.500000 0.296198 -0.813798
vn -0.000000 0.342020 -0.939693
vn 0.500000 0.296198 -0.813798
vn 0.864899 0.171675 -0.471675
vn 0.000000 0.228953 0.973437
vn 0.000000 -0.951789 0.306752
vn -0.000000 -0.288737 -0.957408
vn 0.999958 0.000455 0.009163
vn 0.967414 0.086600 -0.237931
vn -0.000000 0.986459 0.164007
vn 0.000000 0.939693 0.342020
vn -0.000000 -0.019562 -0.999809
vn -0.967413 0.086601 -0.237934
vn -0.999970 0.002634 -0.007237
vn -0.971198 -0.081495 0.223905
vn -0.000000 0.906308 -0.422619
vn 0.962970 -0.085721 0.255619
vn -0.000000 -0.939693 -0.342020
vn 0.866025 -0.171010 0.469846
vn -0.866025 -0.171010 0.469846
vn -0.866025 0.171010 -0.469846
vn 0.866025 0.171010 -0.469846
# 61 normals

g LockNut
s 2
f 2/1/1 25/1/1 4/1/1
s 1
f 1/2/2 2/1/2 3/3/3
f 2/1/2 4/4/3 3/3/3
s 2
f 4/1/1 25/1/1 6/1/1
s 1
f 3/3/3 4/4/3 6/5/4
f 3/3/3 6/5/4 5/6/4
s 2
f 6/1/1 25/1/1 8/1/1
s 1
f 5/6/4 6/5/4 7/7/5
f 6/5/4 8/8/5 7/7/5
s 2
f 8/1/1 25/1/1 10/1/1
s 1
f 7/7/5 8/8/5 10/9/6
f 7/7/5 10/9/6 9/10/6
s 2
f 10/1/1 25/1/1 12/1/1
s 1
f 9/10/6 10/9/6 11/11/7
f 10/9/6 12/12/7 11/11/7
s 2
f 12/1/1 25/1/1 14/1/1
s 1
f 11/11/7 12/12/7 14/13/8
f 11/11/7 14/13/8 13/14/8
s 2
f 14/1/1 25/1/1 16/1/1
s 1
f 13/14/8 14/13/8 15/15/9
f 14/13/8 16/16/9 15/15/9
s 2
f 16/1/1 25/1/1 18/1/1
s 1
f 15/15/9 16/16/9 18/17/10
f 15/15/9 18/17/10 17/18/10
s 2
f 18/1/1 25/1/1 20/1/1
s 1
f 17/18/10 18/17/10 19/19/11
f 18/17/10 20/20/11 19/19/11
s 2
f 20/1/1 25/1/1 22/1/1
s 1
f 19/19/11 20/20/11 22/21/12
f 19/19/11 22/21/12 21/22/12
s 2
f 22/1/1 25/1/1 24/1/1
s 1
f 21/22/12 22/21/12 23/23/13
f 22/21/12 24/24/13 23/23/13
s 2
f 24/1/1 25/1/1 2/1/1
s 1
f 23/23/13 24/24/13 2/25/2
f 23/23/13 2/25/2 1/26/2
# 36 triangles in group

g SwitchBase
s 2
f 27/1/14 50/1/1 29/1/15
s 1
f 26/2/2 27/1/2 28/3/3
f 27/1/2 29/4/3 28/3/3
s 2
f 29/1/15 50/1/1 31/1/16
s 1
f 28/3/3 29/4/3 31/5/4
f 28/3/3 31/5/4 30/6/4
s 2
f 31/1/16 50/1/1 33/1/17
s 1
f 30/6/4 31/5/4 32/7/5
f 31/5/4 33/8/5 32/7/5
s 2
f 33/1/17 50/1/1 35/1/18
s 1
f 32/7/5 33/8/5 35/9/6
f 32/7/5 35/9/6 34/10/6
s 2
f 35/1/18 50/1/1 37/1/19
s 1
f 34/10/6 35/9/6 36/11/7
f 35/9/6 37/12/7 36/11/7
s 2
f 37/1/19 50/1/1 39/1/20
s 1
f 36/11/7 37/12/7 39/13/8
f 36/11/7 39/13/8 38/14/8
s 2
f 39/1/20 50/1/1 41/1/21
s 1
f 38/14/8 39/13/8 40/15/9
f 39/13/8 41/16/9 40/15/9
s 2
f 41/1/21 50/1/1 43/1/22
s 1
f 40/15/9 41/16/9 43/17/10
f 40/15/9 43/17/10 42/18/10
s 2
f 43/1/22 50/1/1 45/1/23
s 1
f 42/18/10 43/17/10 44/19/11
f 43/17/10 45/20/11 44/19/11
s 2
f 45/1/23 50/1/1 47/1/24
s 1
f 44/19/11 45/20/11 47/21/12
f 44/19/11 47/21/12 46/22/12
s 2
f 47/1/24 50/1/1 49/1/25
s 1
f 46/22/12 47/21/12 48/23/13
f 47/21/12 49/24/13 48/23/13
s 2
f 49/1/25 50/1/1 27/1/14
s 1
f 48/23/13 49/24/13 27/25/2
f 48/23/13 27/25/2 26/26/2
# 36 triangles in group

g Slider
f 51/1/5 52/2/5 53/25/5
f 52/2/5 54/26/5 53/25/5
s 2
f 53/1/2 54/2/2 55/25/2
f 54/2/2 56/26/2 55/25/2
s 1
f 55/1/11 56/2/11 57/25/11
f 56/2/11 58/26/11 57/25/11
s 2
f 57/1/8 58/2/8 51/25/8
f 58/2/8 52/26/8 51/25/8
s 3
f 57/1/1 51/2/1 55/25/1
f 51/2/1 53/26/1 55/25/1
f 52/1/26 58/2/26 54/25/26
f 58/2/26 56/26/26 54/25/26
# 12 triangles in group

g LockingTine
s 1
f 67/1/27 68/2/27 69/25/27
f 68/2/27 70/26/27 69/25/27
s 3
f 61/1/2 62/2/2 63/25/2
f 62/2/2 64/26/2 63/25/2
s 1
f 63/1/28 64/2/28 65/25/28
f 64/2/28 66/26/28 65/25/28
s 3
f 65/1/8 66/2/8 59/25/8
f 66/2/8 60/26/8 59/25/8
s 2
f 65/1/29 59/2/30 63/25/29
f 59/2/30 61/26/30 63/25/29
f 60/1/26 66/2/26 62/25/26
f 66/2/26 64/26/26 62/25/26
s 3
f 67/1/8 59/1/8 60/1/8
f 67/1/8 60/1/8 68/1/8
s 2
f 69/1/31 61/1/30 59/1/30
f 69/1/31 59/1/30 67/1/31
f 68/1/26 60/1/26 62/1/26
f 68/1/26 62/1/26 70/1/26
s 3
f 70/1/2 62/1/2 61/1/2
f 70/1/2 61/1/2 69/1/2
# 20 triangles in group

g Switch
s 1
f 71/2/32 72/1/32 73/3/33
f 72/1/32 74/4/33 73/3/33
f 73/3/33 74/4/33 76/5/34
f 73/3/33 76/5/34 75/6/34
f 75/6/34 76/5/34 77/7/35
f 76/5/34 78/8/35 77/7/35
f 77/7/35 78/8/35 80/9/36
f 77/7/35 80/9/36 79/10/36
f 79/10/36 80/9/36 81/11/37
f 80/9/36 82/12/37 81/11/37
f 81/11/37 82/12/37 84/13/38
f 81/11/37 84/13/38 83/14/38
f 83/14/38 84/13/38 85/15/39
f 84/13/38 86/16/39 85/15/39
f 85/15/39 86/16/39 88/17/40
f 85/15/39 88/17/40 87/18/40
f 87/18/40 88/17/40 89/19/41
f 88/17/40 90/20/41 89/19/41
f 89/19/41 90/20/41 92/21/42
f 89/19/41 92/21/42 91/22/42
f 91/22/42 92/21/42 93/23/43
f 92/21/42 94/24/43 93/23/43
f 93/23/43 94/24/43 72/25/32
f 93/23/43 72/25/32 71/26/32
s 2
f 102/1/44 96/2/45 103/25/44
f 96/2/45 100/26/46 103/25/44
s 1
f 97/1/47 98/2/48 99/25/48
s 2
f 98/2/49 100/26/46 99/25/50
f 99/1/50 100/2/46 101/25/51
f 100/2/46 96/26/45 101/25/51
s 1
f 101/1/52 96/2/53 95/25/53
s 3
f 101/1/50 95/2/50 99/25/50
f 95/2/50 97/26/50 99/25/50
s 1
f 102/1/54 95/1/53 96/1/53
s 2
f 103/1/44 97/1/55 95/1/50
f 103/1/44 95/1/50 102/1/44
f 100/1/46 98/1/49 97/1/55
s 1
f 100/1/56 97/1/47 103/1/56
s 2
f 104/1/57 106/1/57 129/1/57
f 105/1/50 128/1/50 107/1/50
s 1
f 104/2/2 105/1/2 106/3/58
f 105/1/2 107/4/58 106/3/58
s 2
f 106/1/57 108/1/57 129/1/57
f 107/1/50 128/1/50 109/1/50
s 1
f 106/3/58 107/4/58 109/5/34
f 106/3/58 109/5/34 108/6/34
s 2
f 108/1/57 110/1/57 129/1/57
f 109/1/50 128/1/50 111/1/50
s 1
f 108/6/34 109/5/34 110/7/35
f 109/5/34 111/8/35 110/7/35
s 2
f 110/1/57 112/1/57 129/1/57
f 111/1/50 128/1/50 113/1/50
s 1
f 110/7/35 111/8/35 113/9/36
f 110/7/35 113/9/36 112/10/36
s 2
f 112/1/57 114/1/57 129/1/57
f 113/1/50 128/1/50 115/1/50
s 1
f 112/10/36 113/9/36 114/11/59
f 113/9/36 115/12/59 114/11/59
s 2
f 114/1/57 116/1/57 129/1/57
f 115/1/50 128/1/50 117/1/50
s 1
f 114/11/59 115/12/59 117/13/8
f 114/11/59 117/13/8 116/14/8
s 2
f 116/1/57 118/1/57 129/1/57
f 117/1/50 128/1/50 119/1/50
s 1
f 116/14/8 117/13/8 118/15/60
f 117/13/8 119/16/60 118/15/60
s 2
f 118/1/57 120/1/57 129/1/57
f 119/1/50 128/1/50 121/1/50
s 1
f 118/15/60 119/16/60 121/17/40
f 118/15/60 121/17/40 120/18/40
s 2
f 120/1/57 122/1/57 129/1/57
f 121/1/50 128/1/50 123/1/50
s 1
f 120/18/40 121/17/40 122/19/41
f 121/17/40 123/20/41 122/19/41
s 2
f 122/1/57 124/1/57 129/1/57
f 123/1/50 128/1/50 125/1/50
s 1
f 122/19/41 123/20/41 125/21/42
f 122/19/41 125/21/42 124/22/42
s 2
f 124/1/57 126/1/57 129/1/57
f 125/1/50 128/1/50 127/1/50
s 1
f 124/22/42 125/21/42 126/23/61
f 125/21/42 127/24/61 126/23/61
s 2
f 126/1/57 104/1/57 129/1/57
f 127/1/50 128/1/50 105/1/50
s 1
f 126/23/61 127/24/61 105/25/2
f 126/23/61 105/25/2 104/26/2
# 86 triangles in group

# 190 triangles total

