# Wavefront OBJ exported by MilkShape 3D

v 3.000000 1.000000 0.000000
v -0.000000 1.000000 0.000000
v 2.598076 1.000000 1.500000
v 3.000000 -0.000000 0.000000
v 2.598076 -0.000000 1.500000
v 2.598076 1.000000 1.500000
v 1.500000 1.000000 2.598076
v 1.500000 1.000000 2.598076
v 1.500000 -0.000000 2.598076
v 0.000000 1.000000 3.000000
v 0.000000 -0.000000 3.000000
v 0.000000 1.000000 3.000000
v -1.500000 1.000000 2.598076
v -1.500000 1.000000 2.598076
v -1.500000 -0.000000 2.598076
v -2.598076 1.000000 1.500000
v -2.598076 -0.000000 1.500000
v -2.598076 1.000000 1.500000
v -3.000000 1.000000 -0.000000
v -3.000000 1.000000 -0.000000
v -3.000000 -0.000000 -0.000000
v -2.598076 1.000000 -1.500000
v -2.598076 -0.000000 -1.500000
v -2.598076 1.000000 -1.500000
v -1.500000 1.000000 -2.598076
v -1.500000 1.000000 -2.598076
v -1.500000 -0.000000 -2.598076
v -0.000000 1.000000 -3.000000
v -0.000000 -0.000000 -3.000000
v -0.000000 1.000000 -3.000000
v 1.500000 1.000000 -2.598076
v 1.500000 1.000000 -2.598076
v 1.500000 -0.000000 -2.598076
v 2.598076 1.000000 -1.500000
v 2.598076 -0.000000 -1.500000
v 2.598076 1.000000 -1.500000
v 3.000000 1.000000 0.000000
v 3.000000 -0.000000 0.000000
v 2.187000 1.642857 0.000000
v 0.000000 2.190476 -0.000000
v 1.893997 1.642857 1.093500
v 2.187000 1.000000 -0.000000
v 1.893997 1.000000 1.093500
v 1.893997 1.642857 1.093500
v 1.093500 1.642857 1.893997
v 1.093500 1.642857 1.893997
v 1.093500 1.000000 1.893997
v 0.000000 1.642857 2.187000
v 0.000000 1.000000 2.187000
v 0.000000 1.642857 2.187000
v -1.093500 1.642857 1.893997
v -1.093500 1.642857 1.893997
v -1.093500 1.000000 1.893997
v -1.893997 1.642857 1.093500
v -1.893997 1.000000 1.093500
v -1.893997 1.642857 1.093500
v -2.187000 1.642857 -0.000000
v -2.187000 1.642857 -0.000000
v -2.187000 1.000000 -0.000000
v -1.893997 1.642857 -1.093500
v -1.893997 1.000000 -1.093500
v -1.893997 1.642857 -1.093500
v -1.093500 1.642857 -1.893997
v -1.093500 1.642857 -1.893997
v -1.093500 1.000000 -1.893997
v 0.000000 1.642857 -2.187000
v 0.000000 1.000000 -2.187000
v 0.000000 1.642857 -2.187000
v 1.093500 1.642857 -1.893997
v 1.093500 1.642857 -1.893997
v 1.093500 1.000000 -1.893997
v 1.893997 1.642857 -1.093500
v 1.893997 1.000000 -1.093500
v 1.893997 1.642857 -1.093500
v 2.187000 1.642857 0.000000
v 2.187000 1.000000 -0.000000
v -1.074074 2.107936 1.888889
v -1.074074 1.620634 1.888889
v 1.074074 2.107935 1.888889
v 1.074074 1.620635 1.888889
v 1.074074 2.107935 1.888889
v 1.074074 1.620635 1.888889
v 1.074074 2.107936 -1.888889
v 1.074074 1.620634 -1.888889
v 1.074074 2.107936 -1.888889
v 1.074074 1.620634 -1.888889
v -1.074074 2.107936 -1.888889
v -1.074074 1.620634 -1.888889
v -1.074074 2.107936 -1.888889
v -1.074074 1.620634 -1.888889
v -1.074074 2.107936 1.888889
v -1.074074 1.620634 1.888889
v -1.074074 2.107936 1.888889
v 1.074074 2.107935 1.888889
v -1.074074 1.620634 1.888889
v 1.074074 1.620635 1.888889
v 1.111111 3.523772 -1.116175
v 1.111111 7.408697 -2.077596
v 0.962251 3.659593 -0.567350
v 0.962250 7.544517 -1.528771
v 0.555556 7.642216 -1.133986
v 0.555556 3.757292 -0.172565
v -0.000000 3.793052 -0.028064
v -0.000000 7.677977 -0.989485
v -0.555556 7.642216 -1.133986
v -0.555556 3.757292 -0.172565
v -0.962251 3.659593 -0.567350
v -0.962251 7.544517 -1.528771
v -1.111111 7.408697 -2.077596
v -1.111111 3.523772 -1.116175
v -0.962251 3.392673 -1.645924
v -0.962251 7.277597 -2.607346
v -0.555556 7.179897 -3.002131
v -0.555556 3.294973 -2.040709
v -0.000000 3.259213 -2.185211
v -0.000000 7.144137 -3.146632
v 0.555556 7.179898 -3.002131
v 0.555556 3.294973 -2.040709
v 0.962251 3.392673 -1.645924
v 0.962251 7.277597 -2.607346
v 1.111111 7.408697 -2.077596
v 1.111111 3.523772 -1.116175
v 0.924509 9.062182 -2.482513
v -0.000000 9.172491 -2.509812
v 0.800681 9.173240 -2.033752
v 1.409091 7.384536 -2.071617
v 1.409091 8.532745 -2.351482
v 1.220309 7.554788 -1.383663
v 1.220308 8.701997 -1.667569
v 0.462255 9.254529 -1.705279
v 0.704545 8.825898 -1.166909
v 0.704545 7.678689 -0.883004
v -0.000000 9.284275 -1.585077
v -0.000000 7.724039 -0.699749
v -0.000000 8.871248 -0.983655
v -0.462255 9.254528 -1.705279
v -0.704545 8.825898 -1.166909
v -0.704545 7.678689 -0.883003
v -0.800681 9.173240 -2.033752
v -1.220308 7.554788 -1.383663
v -1.220309 8.701997 -1.667569
v -0.924509 9.062182 -2.482513
v -1.409091 8.532745 -2.351482
v -1.409091 7.384536 -2.071617
v -0.800681 8.951137 -2.931231
v -1.220309 7.216285 -2.751491
v -1.220308 8.363494 -3.035396
v -0.462255 8.869847 -3.259704
v -0.704545 8.239594 -3.536056
v -0.704545 7.092384 -3.252151
v -0.000000 8.840100 -3.379906
v -0.000000 7.047033 -3.435405
v -0.000000 8.194242 -3.719310
v 0.462255 8.869847 -3.259704
v 0.704545 8.239594 -3.536056
v 0.704545 7.092384 -3.252151
v 0.800681 8.951136 -2.931231
v 1.220308 7.216285 -2.751491
v 1.220309 8.363494 -3.035396
v 1.409091 8.532745 -2.351482
v 1.409091 7.384536 -2.071617
v 1.098303 9.015989 -1.817825
v 1.220308 8.701997 -1.667569
v 1.268207 8.863653 -2.433386
v 0.634076 9.127497 -1.367245
v 0.704545 8.825898 -1.166909
v -0.000000 9.168312 -1.202317
v -0.000000 8.871248 -0.983655
v -0.634076 9.127497 -1.367245
v -0.704545 8.825898 -1.166909
v -1.098303 9.015989 -1.817825
v -1.220309 8.701997 -1.667569
v -1.268207 8.863653 -2.433386
v -1.409091 8.532745 -2.351482
v -1.098303 8.711330 -3.048894
v -1.220308 8.363494 -3.035396
v -0.634076 8.599823 -3.499474
v -0.704545 8.239594 -3.536056
v -0.000000 8.559008 -3.664402
v -0.000000 8.194242 -3.719310
v 0.634076 8.599823 -3.499474
v 0.704545 8.239594 -3.536056
v 1.098303 8.711330 -3.048894
v 1.220309 8.363494 -3.035396
v -1.040578 3.590956 -0.844698
v -1.109192 2.900283 -0.961877
v 1.031062 3.590956 -0.844698
v 1.113922 2.900283 -0.961877
v 1.109337 3.523772 -1.116175
v 1.109337 2.900283 -0.961877
v 1.044399 3.464169 -1.357020
v 1.044399 3.464169 -1.357020
v 1.113922 2.900283 -0.961877
v -1.044253 3.464169 -1.357020
v -1.109192 2.900283 -0.961877
v -1.044253 3.464169 -1.357020
v -1.109192 3.523772 -1.116175
v -1.109192 3.523772 -1.116175
v 1.109337 3.523772 -1.116175
v -1.109192 3.523772 -1.116175
v -1.109192 2.900283 -0.961877
v 1.031062 3.590956 -0.844698
v 1.113922 2.900283 -0.961877
v 1.109337 2.900283 -0.961877
v -1.074074 2.794379 -0.279376
v -1.074074 2.063492 -0.136660
v 1.074074 2.794379 -0.279376
v 1.074074 2.063492 -0.136660
v 1.074074 2.794379 -0.279376
v 1.074074 2.063492 -0.136660
v 1.074074 3.047519 -1.776049
v 1.074074 2.063492 -1.873979
v 1.074074 3.047519 -1.776049
v 1.074074 2.063492 -1.873979
v -1.074074 3.047519 -1.776049
v -1.074074 2.063491 -1.873980
v -1.074074 3.047519 -1.776049
v -1.074074 2.063491 -1.873980
v -1.074074 2.794379 -0.279376
v -1.074074 2.063492 -0.136660
v -1.074074 2.794379 -0.279376
v 1.074074 2.794379 -0.279376
v -1.074074 2.063492 -0.136660
v 1.074074 2.063492 -0.136660
v 1.074074 2.794379 0.279376
v -1.074074 2.063491 0.136660
v -1.074074 2.794379 0.279376
v 1.074074 2.063492 0.136660
v 1.074074 2.797519 0.663549
v 1.074074 2.063492 0.136660
v 1.074074 2.794379 0.279376
v 1.074074 2.063492 0.636479
v -1.074074 2.797519 0.663549
v 1.074074 2.063492 0.636479
v 1.074074 2.797519 0.663549
v -1.074074 2.063491 0.636479
v -1.074074 2.794379 0.279376
v -1.074074 2.063491 0.636479
v -1.074074 2.797519 0.663549
v -1.074074 2.063491 0.136660
v -1.074074 2.794379 0.279376
v 1.074074 2.794379 0.279376
v 1.074074 2.063492 0.136660
v -1.074074 2.063491 0.136660
# 244 vertices

vt 0.000000 1.000000
vt 0.000000 0.000000
vt 0.083333 0.000000
vt 0.083333 1.000000
vt 0.166667 1.000000
vt 0.166667 0.000000
vt 0.250000 0.000000
vt 0.250000 1.000000
vt 0.333333 1.000000
vt 0.333333 0.000000
vt 0.416667 0.000000
vt 0.416667 1.000000
vt 0.500000 1.000000
vt 0.500000 0.000000
vt 0.583333 0.000000
vt 0.583333 1.000000
vt 0.666667 1.000000
vt 0.666667 0.000000
vt 0.750000 0.000000
vt 0.750000 1.000000
vt 0.833333 1.000000
vt 0.833333 0.000000
vt 0.916667 0.000000
vt 0.916667 1.000000
vt 1.000000 1.000000
vt 1.000000 0.000000
# 26 texture coordinates

vn 0.000000 1.000000 0.000000
vn 0.965926 -0.000000 0.258819
vn 0.866025 0.000000 0.500000
vn 0.500000 0.000000 0.866025
vn 0.000000 0.000000 1.000000
vn -0.500000 0.000000 0.866025
vn -0.866025 -0.000000 0.500000
vn -1.000000 -0.000000 -0.000000
vn -0.866025 -0.000000 -0.500000
vn -0.500000 -0.000000 -0.866025
vn -0.000000 -0.000000 -1.000000
vn 0.500000 -0.000000 -0.866025
vn 0.866025 0.000000 -0.500000
vn 0.965926 -0.000000 -0.258819
vn 0.242898 0.970052 0.000000
vn 0.210356 0.970052 0.121449
vn 0.121449 0.970052 0.210356
vn 0.000000 0.970052 0.242898
vn -0.121449 0.970052 0.210356
vn -0.210356 0.970052 0.121449
vn -0.242898 0.970052 -0.000000
vn -0.210356 0.970052 -0.121449
vn -0.121449 0.970052 -0.210356
vn -0.000000 0.970052 -0.242898
vn 0.121449 0.970052 -0.210356
vn 0.210356 0.970052 -0.121449
vn 1.000000 0.000000 0.000000
vn -0.000000 -1.000000 -0.000000
vn 0.967042 0.061166 0.247159
vn 0.867111 0.119661 0.483529
vn 0.500000 0.208044 0.840665
vn -0.000000 0.240228 0.970717
vn -0.500000 0.208044 0.840665
vn -0.867111 0.119661 0.483529
vn -0.999990 -0.001062 -0.004293
vn -0.864899 -0.120581 -0.487247
vn -0.500000 -0.208044 -0.840665
vn 0.000000 -0.240228 -0.970717
vn 0.500000 -0.208044 -0.840665
vn 0.864899 -0.120581 -0.487247
vn 0.964753 -0.063218 -0.255453
vn 0.362119 0.897734 -0.250884
vn -0.000000 0.970716 -0.240230
vn 0.327541 0.942128 -0.071500
vn 0.966305 0.060955 0.250080
vn 0.960229 0.261792 0.097083
vn 0.866209 0.119810 0.485106
vn 0.205187 0.976420 0.067097
vn 0.027874 0.991422 0.127694
vn -0.156911 0.983116 0.094137
vn -0.299675 0.953724 -0.024627
vn -0.866209 0.119810 0.485106
vn -0.362120 0.911126 -0.196772
vn -0.999999 -0.000350 -0.001435
vn -0.327540 0.866733 -0.376154
vn -0.865840 -0.119961 -0.485727
vn -0.205189 0.832428 -0.514745
vn -0.027874 0.817436 -0.575345
vn 0.156913 0.825740 -0.541786
vn 0.299675 0.855129 -0.423023
vn 0.865840 -0.119961 -0.485727
vn 0.965733 -0.061903 -0.252046
vn 0.662414 0.723968 0.192557
vn 0.756511 0.497257 0.424767
vn 0.754070 0.632797 -0.175913
vn 0.393243 0.791931 0.467124
vn 0.389275 0.571042 0.722756
vn 0.018738 0.818458 0.574261
vn -0.082265 0.590794 0.802617
vn -0.360796 0.796433 0.485305
vn -0.531750 0.551265 0.642923
vn -0.643678 0.731771 0.224031
vn -0.838794 0.463007 0.286442
vn -0.754073 0.641799 -0.139531
vn -0.921052 0.349743 -0.171301
vn -0.662407 0.550608 -0.507984
vn -0.756498 0.241801 -0.607654
vn -0.393233 0.482692 -0.782545
vn -0.389265 0.168118 -0.905654
vn -0.018736 0.456197 -0.889682
vn 0.082263 0.148352 -0.985507
vn 0.360787 0.478199 -0.800724
vn 0.531737 0.187850 -0.825814
vn 0.643663 0.542841 -0.539463
vn 0.838785 0.275993 -0.469327
vn -0.000000 0.732964 0.680268
vn -0.000000 -0.167270 0.985911
vn 0.000000 0.219776 0.975550
vn 0.999958 0.005488 0.007351
vn 0.967414 -0.060826 -0.245786
vn -0.000000 0.573875 0.818943
vn 0.000000 -0.573875 -0.818943
vn -0.967413 -0.060827 -0.245789
vn -0.971198 0.057240 0.231297
vn -0.000000 0.516533 -0.856267
vn 0.962970 0.071420 0.259978
vn 0.000000 0.191644 0.981465
vn -0.000000 0.099031 -0.995084
vn 0.000000 0.985996 0.166767
vn -0.000000 0.191644 -0.981465
vn 0.000000 -0.036853 0.999321
vn -0.000000 0.999967 -0.008173
# 102 normals

g LockNut
s 2
f 1/1/1 2/1/1 3/1/1
s 1
f 4/2/2 1/1/2 5/3/3
f 1/1/2 6/4/3 5/3/3
s 2
f 3/1/1 2/1/1 7/1/1
s 1
f 5/3/3 6/4/3 8/5/4
f 5/3/3 8/5/4 9/6/4
s 2
f 7/1/1 2/1/1 10/1/1
s 1
f 9/6/4 8/5/4 11/7/5
f 8/5/4 12/8/5 11/7/5
s 2
f 10/1/1 2/1/1 13/1/1
s 1
f 11/7/5 12/8/5 14/9/6
f 11/7/5 14/9/6 15/10/6
s 2
f 13/1/1 2/1/1 16/1/1
s 1
f 15/10/6 14/9/6 17/11/7
f 14/9/6 18/12/7 17/11/7
s 2
f 16/1/1 2/1/1 19/1/1
s 1
f 17/11/7 18/12/7 20/13/8
f 17/11/7 20/13/8 21/14/8
s 2
f 19/1/1 2/1/1 22/1/1
s 1
f 21/14/8 20/13/8 23/15/9
f 20/13/8 24/16/9 23/15/9
s 2
f 22/1/1 2/1/1 25/1/1
s 1
f 23/15/9 24/16/9 26/17/10
f 23/15/9 26/17/10 27/18/10
s 2
f 25/1/1 2/1/1 28/1/1
s 1
f 27/18/10 26/17/10 29/19/11
f 26/17/10 30/20/11 29/19/11
s 2
f 28/1/1 2/1/1 31/1/1
s 1
f 29/19/11 30/20/11 32/21/12
f 29/19/11 32/21/12 33/22/12
s 2
f 31/1/1 2/1/1 34/1/1
s 1
f 33/22/12 32/21/12 35/23/13
f 32/21/12 36/24/13 35/23/13
s 2
f 34/1/1 2/1/1 1/1/1
s 1
f 35/23/13 36/24/13 37/25/14
f 35/23/13 37/25/14 38/26/14
# 36 triangles in group

g SwitchBase
s 2
f 39/1/15 40/1/1 41/1/16
s 1
f 42/2/2 39/1/2 43/3/3
f 39/1/2 44/4/3 43/3/3
s 2
f 41/1/16 40/1/1 45/1/17
s 1
f 43/3/3 44/4/3 46/5/4
f 43/3/3 46/5/4 47/6/4
s 2
f 45/1/17 40/1/1 48/1/18
s 1
f 47/6/4 46/5/4 49/7/5
f 46/5/4 50/8/5 49/7/5
s 2
f 48/1/18 40/1/1 51/1/19
s 1
f 49/7/5 50/8/5 52/9/6
f 49/7/5 52/9/6 53/10/6
s 2
f 51/1/19 40/1/1 54/1/20
s 1
f 53/10/6 52/9/6 55/11/7
f 52/9/6 56/12/7 55/11/7
s 2
f 54/1/20 40/1/1 57/1/21
s 1
f 55/11/7 56/12/7 58/13/8
f 55/11/7 58/13/8 59/14/8
s 2
f 57/1/21 40/1/1 60/1/22
s 1
f 59/14/8 58/13/8 61/15/9
f 58/13/8 62/16/9 61/15/9
s 2
f 60/1/22 40/1/1 63/1/23
s 1
f 61/15/9 62/16/9 64/17/10
f 61/15/9 64/17/10 65/18/10
s 2
f 63/1/23 40/1/1 66/1/24
s 1
f 65/18/10 64/17/10 67/19/11
f 64/17/10 68/20/11 67/19/11
s 2
f 66/1/24 40/1/1 69/1/25
s 1
f 67/19/11 68/20/11 70/21/12
f 67/19/11 70/21/12 71/22/12
s 2
f 69/1/25 40/1/1 72/1/26
s 1
f 71/22/12 70/21/12 73/23/13
f 70/21/12 74/24/13 73/23/13
s 2
f 72/1/26 40/1/1 39/1/15
s 1
f 73/23/13 74/24/13 75/25/14
f 73/23/13 75/25/14 76/26/14
# 36 triangles in group

g Slider
f 77/1/5 78/2/5 79/25/5
f 78/2/5 80/26/5 79/25/5
s 2
f 81/1/27 82/2/27 83/25/27
f 82/2/27 84/26/27 83/25/27
s 1
f 85/1/11 86/2/11 87/25/11
f 86/2/11 88/26/11 87/25/11
s 2
f 89/1/8 90/2/8 91/25/8
f 90/2/8 92/26/8 91/25/8
s 3
f 89/1/1 93/2/1 83/25/1
f 93/2/1 94/26/1 83/25/1
f 95/1/28 90/2/28 96/25/28
f 90/2/28 84/26/28 96/25/28
# 12 triangles in group

g Switch
s 1
f 97/2/29 98/1/29 99/3/30
f 98/1/29 100/4/30 99/3/30
f 99/3/30 100/4/30 101/5/31
f 99/3/30 101/5/31 102/6/31
f 102/6/31 101/5/31 103/7/32
f 101/5/31 104/8/32 103/7/32
f 103/7/32 104/8/32 105/9/33
f 103/7/32 105/9/33 106/10/33
f 106/10/33 105/9/33 107/11/34
f 105/9/33 108/12/34 107/11/34
f 107/11/34 108/12/34 109/13/35
f 107/11/34 109/13/35 110/14/35
f 110/14/35 109/13/35 111/15/36
f 109/13/35 112/16/36 111/15/36
f 111/15/36 112/16/36 113/17/37
f 111/15/36 113/17/37 114/18/37
f 114/18/37 113/17/37 115/19/38
f 113/17/37 116/20/38 115/19/38
f 115/19/38 116/20/38 117/21/39
f 115/19/38 117/21/39 118/22/39
f 118/22/39 117/21/39 119/23/40
f 117/21/39 120/24/40 119/23/40
f 119/23/40 120/24/40 121/25/41
f 119/23/40 121/25/41 122/26/41
f 123/1/42 124/1/43 125/1/44
f 126/2/45 127/1/46 128/3/47
f 127/1/46 129/4/47 128/3/47
f 125/1/44 124/1/43 130/1/48
f 128/3/47 129/4/47 131/5/31
f 128/3/47 131/5/31 132/6/31
f 130/1/48 124/1/43 133/1/49
f 132/6/31 131/5/31 134/7/32
f 131/5/31 135/8/32 134/7/32
f 133/1/49 124/1/43 136/1/50
f 134/7/32 135/8/32 137/9/33
f 134/7/32 137/9/33 138/10/33
f 136/1/50 124/1/43 139/1/51
f 138/10/33 137/9/33 140/11/52
f 137/9/33 141/12/52 140/11/52
f 139/1/51 124/1/43 142/1/53
f 140/11/52 141/12/52 143/13/8
f 140/11/52 143/13/8 144/14/54
f 142/1/53 124/1/43 145/1/55
f 144/14/54 143/13/8 146/15/56
f 143/13/8 147/16/56 146/15/56
f 145/1/55 124/1/43 148/1/57
f 146/15/56 147/16/56 149/17/37
f 146/15/56 149/17/37 150/18/37
f 148/1/57 124/1/43 151/1/58
f 150/18/37 149/17/37 152/19/38
f 149/17/37 153/20/38 152/19/38
f 151/1/58 124/1/43 154/1/59
f 152/19/38 153/20/38 155/21/39
f 152/19/38 155/21/39 156/22/39
f 154/1/59 124/1/43 157/1/60
f 156/22/39 155/21/39 158/23/61
f 155/21/39 159/24/61 158/23/61
f 157/1/60 124/1/43 123/1/42
f 158/23/61 159/24/61 160/25/62
f 158/23/61 160/25/62 161/26/62
f 162/1/63 163/1/64 127/1/46
f 162/1/63 127/1/46 164/1/65
f 165/1/66 166/1/67 163/1/64
f 165/1/66 163/1/64 162/1/63
f 167/1/68 168/1/69 166/1/67
f 167/1/68 166/1/67 165/1/66
f 169/1/70 170/1/71 168/1/69
f 169/1/70 168/1/69 167/1/68
f 171/1/72 172/1/73 170/1/71
f 171/1/72 170/1/71 169/1/70
f 173/1/74 174/1/75 172/1/73
f 173/1/74 172/1/73 171/1/72
f 175/1/76 176/1/77 174/1/75
f 175/1/76 174/1/75 173/1/74
f 177/1/78 178/1/79 176/1/77
f 177/1/78 176/1/77 175/1/76
f 179/1/80 180/1/81 178/1/79
f 179/1/80 178/1/79 177/1/78
f 181/1/82 182/1/83 180/1/81
f 181/1/82 180/1/81 179/1/80
f 183/1/84 184/1/85 182/1/83
f 183/1/84 182/1/83 181/1/82
f 164/1/65 127/1/46 184/1/85
f 164/1/65 184/1/85 183/1/84
f 125/1/44 162/1/63 164/1/65
f 125/1/44 164/1/65 123/1/42
f 130/1/48 165/1/66 162/1/63
f 130/1/48 162/1/63 125/1/44
f 133/1/49 167/1/68 165/1/66
f 133/1/49 165/1/66 130/1/48
f 136/1/50 169/1/70 167/1/68
f 136/1/50 167/1/68 133/1/49
f 139/1/51 171/1/72 169/1/70
f 139/1/51 169/1/70 136/1/50
f 142/1/53 173/1/74 171/1/72
f 142/1/53 171/1/72 139/1/51
f 145/1/55 175/1/76 173/1/74
f 145/1/55 173/1/74 142/1/53
f 148/1/57 177/1/78 175/1/76
f 148/1/57 175/1/76 145/1/55
f 151/1/58 179/1/80 177/1/78
f 151/1/58 177/1/78 148/1/57
f 154/1/59 181/1/82 179/1/80
f 154/1/59 179/1/80 151/1/58
f 157/1/60 183/1/84 181/1/82
f 157/1/60 181/1/82 154/1/59
f 123/1/42 164/1/65 183/1/84
f 123/1/42 183/1/84 157/1/60
s 2
f 185/1/86 186/2/87 187/25/87
f 186/2/87 188/26/88 187/25/87
s 1
f 189/1/89 190/2/90 191/25/90
s 2
f 190/2/91 188/26/88 191/25/91
f 192/1/92 193/2/92 194/25/92
f 193/2/92 195/26/92 194/25/92
s 1
f 196/1/93 186/2/93 197/25/93
s 3
f 196/1/43 198/2/43 191/25/43
f 198/2/43 199/26/43 191/25/43
s 1
f 185/1/94 200/1/94 201/1/94
s 2
f 202/1/43 189/1/95 200/1/43
f 202/1/43 200/1/43 185/1/86
f 203/1/38 204/1/38 189/1/95
s 1
f 203/1/96 189/1/89 202/1/96
# 122 triangles in group

g LockTine
f 205/1/97 206/2/97 207/25/97
f 206/2/97 208/26/97 207/25/97
s 3
f 209/1/27 210/2/27 211/25/27
f 210/2/27 212/26/27 211/25/27
s 1
f 213/1/98 214/2/98 215/25/98
f 214/2/98 216/26/98 215/25/98
s 3
f 217/1/8 218/2/8 219/25/8
f 218/2/8 220/26/8 219/25/8
s 2
f 217/1/99 221/2/99 211/25/99
f 221/2/99 222/26/99 211/25/99
f 223/1/28 218/2/28 224/25/28
f 218/2/28 212/26/28 224/25/28
s 1
f 225/25/100 226/2/100 227/1/100
f 225/25/100 228/26/100 226/2/100
s 3
f 229/25/27 230/2/27 231/1/27
f 229/25/27 232/26/27 230/2/27
s 1
f 233/25/101 234/2/101 235/1/101
f 233/25/101 236/26/101 234/2/101
s 3
f 237/25/8 238/2/8 239/1/8
f 237/25/8 240/26/8 238/2/8
s 2
f 229/25/102 241/2/102 239/1/102
f 229/25/102 242/26/102 241/2/102
f 243/25/28 238/2/28 244/1/28
f 243/25/28 232/26/28 238/2/28
# 24 triangles in group

# 230 triangles total

