# Wavefront OBJ exported by MilkShape 3D

v 3.000000 1.000000 0.000000
v -0.000000 1.000000 0.000000
v 2.598076 1.000000 1.500000
v 3.000000 -0.000000 0.000000
v 2.598076 -0.000000 1.500000
v 2.598076 1.000000 1.500000
v 1.500000 1.000000 2.598076
v 1.500000 1.000000 2.598076
v 1.500000 -0.000000 2.598076
v 0.000000 1.000000 3.000000
v 0.000000 -0.000000 3.000000
v 0.000000 1.000000 3.000000
v -1.500000 1.000000 2.598076
v -1.500000 1.000000 2.598076
v -1.500000 -0.000000 2.598076
v -2.598076 1.000000 1.500000
v -2.598076 -0.000000 1.500000
v -2.598076 1.000000 1.500000
v -3.000000 1.000000 -0.000000
v -3.000000 1.000000 -0.000000
v -3.000000 -0.000000 -0.000000
v -2.598076 1.000000 -1.500000
v -2.598076 -0.000000 -1.500000
v -2.598076 1.000000 -1.500000
v -1.500000 1.000000 -2.598076
v -1.500000 1.000000 -2.598076
v -1.500000 -0.000000 -2.598076
v -0.000000 1.000000 -3.000000
v -0.000000 -0.000000 -3.000000
v -0.000000 1.000000 -3.000000
v 1.500000 1.000000 -2.598076
v 1.500000 1.000000 -2.598076
v 1.500000 -0.000000 -2.598076
v 2.598076 1.000000 -1.500000
v 2.598076 -0.000000 -1.500000
v 2.598076 1.000000 -1.500000
v 3.000000 1.000000 0.000000
v 3.000000 -0.000000 0.000000
v 2.187000 1.642857 0.000000
v 0.000000 2.190476 -0.000000
v 1.893997 1.642857 1.093500
v 2.187000 1.000000 -0.000000
v 1.893997 1.000000 1.093500
v 1.893997 1.642857 1.093500
v 1.093500 1.642857 1.893997
v 1.093500 1.642857 1.893997
v 1.093500 1.000000 1.893997
v 0.000000 1.642857 2.187000
v 0.000000 1.000000 2.187000
v 0.000000 1.642857 2.187000
v -1.093500 1.642857 1.893997
v -1.093500 1.642857 1.893997
v -1.093500 1.000000 1.893997
v -1.893997 1.642857 1.093500
v -1.893997 1.000000 1.093500
v -1.893997 1.642857 1.093500
v -2.187000 1.642857 -0.000000
v -2.187000 1.642857 -0.000000
v -2.187000 1.000000 -0.000000
v -1.893997 1.642857 -1.093500
v -1.893997 1.000000 -1.093500
v -1.893997 1.642857 -1.093500
v -1.093500 1.642857 -1.893997
v -1.093500 1.642857 -1.893997
v -1.093500 1.000000 -1.893997
v 0.000000 1.642857 -2.187000
v 0.000000 1.000000 -2.187000
v 0.000000 1.642857 -2.187000
v 1.093500 1.642857 -1.893997
v 1.093500 1.642857 -1.893997
v 1.093500 1.000000 -1.893997
v 1.893997 1.642857 -1.093500
v 1.893997 1.000000 -1.093500
v 1.893997 1.642857 -1.093500
v 2.187000 1.642857 0.000000
v 2.187000 1.000000 -0.000000
v -1.074074 2.107936 1.888889
v -1.074074 1.620634 1.888889
v 1.074074 2.107935 1.888889
v 1.074074 1.620635 1.888889
v 1.074074 2.107935 1.888889
v 1.074074 1.620635 1.888889
v 1.074074 2.107936 -1.888889
v 1.074074 1.620634 -1.888889
v 1.074074 2.107936 -1.888889
v 1.074074 1.620634 -1.888889
v -1.074074 2.107936 -1.888889
v -1.074074 1.620634 -1.888889
v -1.074074 2.107936 -1.888889
v -1.074074 1.620634 -1.888889
v -1.074074 2.107936 1.888889
v -1.074074 1.620634 1.888889
v -1.074074 2.107936 1.888889
v 1.074074 2.107935 1.888889
v -1.074074 1.620634 1.888889
v 1.074074 1.620635 1.888889
v 1.111111 2.969997 0.020574
v 1.111111 6.972117 0.020575
v 0.962250 2.969997 0.585956
v 0.962250 6.972117 0.585956
v 0.555556 6.972117 0.992650
v 0.555556 2.969997 0.992650
v -0.000000 2.969997 1.141511
v -0.000000 6.972117 1.141511
v -0.555556 6.972117 0.992650
v -0.555556 2.969997 0.992650
v -0.962250 2.969997 0.585956
v -0.962250 6.972117 0.585956
v -1.111111 6.972117 0.020575
v -1.111111 2.969997 0.020574
v -0.962250 2.969997 -0.525156
v -0.962250 6.972117 -0.525156
v -0.555556 6.972117 -0.931850
v -0.555556 2.969997 -0.931850
v 0.000000 2.969997 -1.080711
v 0.000000 6.972117 -1.080711
v 0.555556 6.972117 -0.931850
v 0.555556 2.969997 -0.931850
v 0.962250 2.969997 -0.525156
v 0.962250 6.972117 -0.525156
v 1.111111 6.972117 0.020575
v 1.111111 2.969997 0.020574
v 0.924509 8.674456 0.024729
v -0.000000 8.788092 0.024729
v 0.800681 8.674456 0.487028
v 1.409091 6.947228 0.020575
v 1.409091 8.129045 0.024737
v 1.220308 6.947228 0.729282
v 1.220308 8.129045 0.729282
v 0.462255 8.674456 0.825409
v 0.704545 8.129045 1.245045
v 0.704545 6.947228 1.245045
v -0.000000 8.674456 0.949238
v -0.000000 6.947228 1.433828
v -0.000000 8.129045 1.433828
v -0.462255 8.674456 0.825409
v -0.704545 8.129045 1.245045
v -0.704545 6.947228 1.245045
v -0.800681 8.674456 0.487028
v -1.220308 6.947228 0.729282
v -1.220308 8.129045 0.729282
v -0.924509 8.674456 0.024729
v -1.409091 8.129045 0.024737
v -1.409091 6.947228 0.020575
v -0.800681 8.674456 -0.437526
v -1.220308 6.947228 -0.679809
v -1.220308 8.129045 -0.679809
v -0.462255 8.674456 -0.775908
v -0.704545 8.129045 -1.195572
v -0.704545 6.947228 -1.195572
v -0.000000 8.674456 -0.899736
v 0.000000 6.947228 -1.384354
v 0.000000 8.129045 -1.384354
v 0.462255 8.674456 -0.775908
v 0.704545 8.129045 -1.195572
v 0.704545 6.947228 -1.195572
v 0.800681 8.674456 -0.437526
v 1.220308 6.947228 -0.679809
v 1.220308 8.129045 -0.679809
v 1.409091 8.129045 0.024737
v 1.409091 6.947228 0.020575
v 1.098303 8.469938 0.658855
v 1.220308 8.129045 0.729282
v 1.268207 8.469938 0.024725
v 0.634076 8.469938 1.123028
v 0.704545 8.129045 1.245045
v -0.000000 8.469938 1.292931
v -0.000000 8.129045 1.433828
v -0.634076 8.469938 1.123028
v -0.704545 8.129045 1.245045
v -1.098303 8.469938 0.658855
v -1.220308 8.129045 0.729282
v -1.268207 8.469938 0.024725
v -1.409091 8.129045 0.024737
v -1.098303 8.469938 -0.609351
v -1.220308 8.129045 -0.679809
v -0.634076 8.469938 -1.073524
v -0.704545 8.129045 -1.195572
v 0.000000 8.469938 -1.243427
v 0.000000 8.129045 -1.384354
v 0.634076 8.469938 -1.073524
v 0.704545 8.129045 -1.195572
v 1.098303 8.469938 -0.609351
v 1.220308 8.129045 -0.679809
v -1.040578 2.969997 0.300241
v -1.109192 2.327699 0.020574
v 1.031062 2.969997 0.300242
v 1.113922 2.327700 0.020574
v 1.109337 2.969997 0.020574
v 1.109337 2.327700 0.020574
v 1.044399 2.969997 -0.227536
v 1.044399 2.969997 -0.227536
v 1.113922 2.327700 0.020574
v -1.044253 2.969997 -0.227536
v -1.109192 2.327699 0.020574
v -1.044253 2.969997 -0.227536
v -1.109192 2.969997 0.020574
v -1.109192 2.969997 0.020574
v 1.109337 2.969997 0.020574
v -1.109192 2.969997 0.020574
v -1.109192 2.327699 0.020574
v 1.031062 2.969997 0.300242
v 1.113922 2.327700 0.020574
v 1.109337 2.327700 0.020574
v -1.074074 2.794379 -0.279376
v -1.074074 2.063492 -0.136660
v 1.074074 2.794379 -0.279376
v 1.074074 2.063492 -0.136660
v 1.074074 2.794379 -0.279376
v 1.074074 2.063492 -0.136660
v 1.074074 3.047519 -1.776049
v 1.074074 2.063492 -1.873979
v 1.074074 3.047519 -1.776049
v 1.074074 2.063492 -1.873979
v -1.074074 3.047519 -1.776049
v -1.074074 2.063491 -1.873980
v -1.074074 3.047519 -1.776049
v -1.074074 2.063491 -1.873980
v -1.074074 2.794379 -0.279376
v -1.074074 2.063492 -0.136660
v -1.074074 2.794379 -0.279376
v 1.074074 2.794379 -0.279376
v -1.074074 2.063492 -0.136660
v 1.074074 2.063492 -0.136660
v 1.074074 2.794379 0.279376
v -1.074074 2.063491 0.136660
v -1.074074 2.794379 0.279376
v 1.074074 2.063492 0.136660
v 1.074074 2.797519 0.663549
v 1.074074 2.063492 0.136660
v 1.074074 2.794379 0.279376
v 1.074074 2.063492 0.636479
v -1.074074 2.797519 0.663549
v 1.074074 2.063492 0.636479
v 1.074074 2.797519 0.663549
v -1.074074 2.063491 0.636479
v -1.074074 2.794379 0.279376
v -1.074074 2.063491 0.636479
v -1.074074 2.797519 0.663549
v -1.074074 2.063491 0.136660
v -1.074074 2.794379 0.279376
v 1.074074 2.794379 0.279376
v 1.074074 2.063492 0.136660
v -1.074074 2.063491 0.136660
# 244 vertices

vt 0.000000 1.000000
vt 0.000000 0.000000
vt 0.083333 0.000000
vt 0.083333 1.000000
vt 0.166667 1.000000
vt 0.166667 0.000000
vt 0.250000 0.000000
vt 0.250000 1.000000
vt 0.333333 1.000000
vt 0.333333 0.000000
vt 0.416667 0.000000
vt 0.416667 1.000000
vt 0.500000 1.000000
vt 0.500000 0.000000
vt 0.583333 0.000000
vt 0.583333 1.000000
vt 0.666667 1.000000
vt 0.666667 0.000000
vt 0.750000 0.000000
vt 0.750000 1.000000
vt 0.833333 1.000000
vt 0.833333 0.000000
vt 0.916667 0.000000
vt 0.916667 1.000000
vt 1.000000 1.000000
vt 1.000000 0.000000
# 26 texture coordinates

vn 0.000000 1.000000 0.000000
vn 0.965926 -0.000000 0.258819
vn 0.866025 0.000000 0.500000
vn 0.500000 0.000000 0.866025
vn 0.000000 0.000000 1.000000
vn -0.500000 0.000000 0.866025
vn -0.866025 -0.000000 0.500000
vn -1.000000 -0.000000 -0.000000
vn -0.866025 -0.000000 -0.500000
vn -0.500000 -0.000000 -0.866025
vn -0.000000 -0.000000 -1.000000
vn 0.500000 -0.000000 -0.866025
vn 0.866025 0.000000 -0.500000
vn 0.965926 -0.000000 -0.258819
vn 0.242898 0.970052 0.000000
vn 0.210356 0.970052 0.121449
vn 0.121449 0.970052 0.210356
vn 0.000000 0.970052 0.242898
vn -0.121449 0.970052 0.210356
vn -0.210356 0.970052 0.121449
vn -0.242898 0.970052 -0.000000
vn -0.210356 0.970052 -0.121449
vn -0.121449 0.970052 -0.210356
vn -0.000000 0.970052 -0.242898
vn 0.121449 0.970052 -0.210356
vn 0.210356 0.970052 -0.121449
vn 1.000000 0.000000 0.000000
vn -0.000000 -1.000000 -0.000000
vn 0.967042 -0.000000 0.254615
vn 0.867111 -0.000000 0.498116
vn -0.867111 -0.000000 0.498116
vn -0.999990 -0.000000 -0.004423
vn -0.864899 0.000000 -0.501946
vn 0.864899 0.000000 -0.501946
vn 0.964752 0.000000 -0.263159
vn 0.362119 0.931715 -0.027877
vn 0.327541 0.931715 0.156919
vn 0.966304 -0.000907 0.257400
vn 0.960229 0.230804 0.157129
vn 0.205187 0.931708 0.299696
vn 0.027874 0.931714 0.362122
vn -0.156911 0.931713 0.327552
vn -0.299675 0.931711 0.205206
vn -0.362120 0.931715 0.027868
vn -0.999999 0.000005 -0.001477
vn -0.327540 0.931715 -0.156925
vn -0.205189 0.931707 -0.299699
vn -0.027874 0.931712 -0.362126
vn 0.156913 0.931711 -0.327555
vn 0.299675 0.931710 -0.205210
vn 0.965540 0.000917 -0.260253
vn 0.662414 0.656510 0.360835
vn 0.756511 0.380654 0.531783
vn 0.754070 0.656526 -0.018746
vn 0.393243 0.656524 0.643689
vn 0.389275 0.380693 0.838771
vn 0.018738 0.656537 0.754061
vn -0.082265 0.380683 0.921039
vn -0.360796 0.656527 0.662419
vn -0.531750 0.380674 0.756525
vn -0.643678 0.656524 0.393262
vn -0.838794 0.380637 0.389281
vn -0.754073 0.656524 0.018733
vn -0.921052 0.380652 -0.082267
vn -0.662407 0.656516 -0.360837
vn -0.756498 0.380696 -0.531772
vn -0.393233 0.656547 -0.643673
vn -0.389265 0.380758 -0.838747
vn -0.018736 0.656564 -0.754037
vn 0.082263 0.380754 -0.921010
vn 0.360787 0.656552 -0.662399
vn 0.531737 0.380732 -0.756504
vn 0.643663 0.656539 -0.393260
vn 0.838785 0.380656 -0.389282
vn -0.000000 0.548081 0.836425
vn -0.000000 -0.399215 0.916857
vn -0.000000 -0.021014 0.999779
vn 0.999958 0.003561 0.008454
vn 0.967414 0.000000 -0.253201
vn -0.000000 0.360336 0.932822
vn 0.000000 -0.360336 -0.932822
vn -0.967413 0.000000 -0.253204
vn -0.971198 -0.000000 0.238274
vn 0.000000 0.707107 -0.707107
vn 0.962970 0.006875 0.269522
vn 0.000000 0.191644 0.981465
vn -0.000000 0.099031 -0.995084
vn 0.000000 0.985996 0.166767
vn -0.000000 0.191644 -0.981465
vn 0.000000 -0.036853 0.999321
vn -0.000000 0.999967 -0.008173
# 91 normals

g LockNut
s 2
f 1/1/1 2/1/1 3/1/1
s 1
f 4/2/2 1/1/2 5/3/3
f 1/1/2 6/4/3 5/3/3
s 2
f 3/1/1 2/1/1 7/1/1
s 1
f 5/3/3 6/4/3 8/5/4
f 5/3/3 8/5/4 9/6/4
s 2
f 7/1/1 2/1/1 10/1/1
s 1
f 9/6/4 8/5/4 11/7/5
f 8/5/4 12/8/5 11/7/5
s 2
f 10/1/1 2/1/1 13/1/1
s 1
f 11/7/5 12/8/5 14/9/6
f 11/7/5 14/9/6 15/10/6
s 2
f 13/1/1 2/1/1 16/1/1
s 1
f 15/10/6 14/9/6 17/11/7
f 14/9/6 18/12/7 17/11/7
s 2
f 16/1/1 2/1/1 19/1/1
s 1
f 17/11/7 18/12/7 20/13/8
f 17/11/7 20/13/8 21/14/8
s 2
f 19/1/1 2/1/1 22/1/1
s 1
f 21/14/8 20/13/8 23/15/9
f 20/13/8 24/16/9 23/15/9
s 2
f 22/1/1 2/1/1 25/1/1
s 1
f 23/15/9 24/16/9 26/17/10
f 23/15/9 26/17/10 27/18/10
s 2
f 25/1/1 2/1/1 28/1/1
s 1
f 27/18/10 26/17/10 29/19/11
f 26/17/10 30/20/11 29/19/11
s 2
f 28/1/1 2/1/1 31/1/1
s 1
f 29/19/11 30/20/11 32/21/12
f 29/19/11 32/21/12 33/22/12
s 2
f 31/1/1 2/1/1 34/1/1
s 1
f 33/22/12 32/21/12 35/23/13
f 32/21/12 36/24/13 35/23/13
s 2
f 34/1/1 2/1/1 1/1/1
s 1
f 35/23/13 36/24/13 37/25/14
f 35/23/13 37/25/14 38/26/14
# 36 triangles in group

g SwitchBase
s 2
f 39/1/15 40/1/1 41/1/16
s 1
f 42/2/2 39/1/2 43/3/3
f 39/1/2 44/4/3 43/3/3
s 2
f 41/1/16 40/1/1 45/1/17
s 1
f 43/3/3 44/4/3 46/5/4
f 43/3/3 46/5/4 47/6/4
s 2
f 45/1/17 40/1/1 48/1/18
s 1
f 47/6/4 46/5/4 49/7/5
f 46/5/4 50/8/5 49/7/5
s 2
f 48/1/18 40/1/1 51/1/19
s 1
f 49/7/5 50/8/5 52/9/6
f 49/7/5 52/9/6 53/10/6
s 2
f 51/1/19 40/1/1 54/1/20
s 1
f 53/10/6 52/9/6 55/11/7
f 52/9/6 56/12/7 55/11/7
s 2
f 54/1/20 40/1/1 57/1/21
s 1
f 55/11/7 56/12/7 58/13/8
f 55/11/7 58/13/8 59/14/8
s 2
f 57/1/21 40/1/1 60/1/22
s 1
f 59/14/8 58/13/8 61/15/9
f 58/13/8 62/16/9 61/15/9
s 2
f 60/1/22 40/1/1 63/1/23
s 1
f 61/15/9 62/16/9 64/17/10
f 61/15/9 64/17/10 65/18/10
s 2
f 63/1/23 40/1/1 66/1/24
s 1
f 65/18/10 64/17/10 67/19/11
f 64/17/10 68/20/11 67/19/11
s 2
f 66/1/24 40/1/1 69/1/25
s 1
f 67/19/11 68/20/11 70/21/12
f 67/19/11 70/21/12 71/22/12
s 2
f 69/1/25 40/1/1 72/1/26
s 1
f 71/22/12 70/21/12 73/23/13
f 70/21/12 74/24/13 73/23/13
s 2
f 72/1/26 40/1/1 39/1/15
s 1
f 73/23/13 74/24/13 75/25/14
f 73/23/13 75/25/14 76/26/14
# 36 triangles in group

g Slider
f 77/1/5 78/2/5 79/25/5
f 78/2/5 80/26/5 79/25/5
s 2
f 81/1/27 82/2/27 83/25/27
f 82/2/27 84/26/27 83/25/27
s 1
f 85/1/11 86/2/11 87/25/11
f 86/2/11 88/26/11 87/25/11
s 2
f 89/1/8 90/2/8 91/25/8
f 90/2/8 92/26/8 91/25/8
s 3
f 89/1/1 93/2/1 83/25/1
f 93/2/1 94/26/1 83/25/1
f 95/1/28 90/2/28 96/25/28
f 90/2/28 84/26/28 96/25/28
# 12 triangles in group

g Switch
s 1
f 97/2/29 98/1/29 99/3/30
f 98/1/29 100/4/30 99/3/30
f 99/3/30 100/4/30 101/5/4
f 99/3/30 101/5/4 102/6/4
f 102/6/4 101/5/4 103/7/5
f 101/5/4 104/8/5 103/7/5
f 103/7/5 104/8/5 105/9/6
f 103/7/5 105/9/6 106/10/6
f 106/10/6 105/9/6 107/11/31
f 105/9/6 108/12/31 107/11/31
f 107/11/31 108/12/31 109/13/32
f 107/11/31 109/13/32 110/14/32
f 110/14/32 109/13/32 111/15/33
f 109/13/32 112/16/33 111/15/33
f 111/15/33 112/16/33 113/17/10
f 111/15/33 113/17/10 114/18/10
f 114/18/10 113/17/10 115/19/11
f 113/17/10 116/20/11 115/19/11
f 115/19/11 116/20/11 117/21/12
f 115/19/11 117/21/12 118/22/12
f 118/22/12 117/21/12 119/23/34
f 117/21/12 120/24/34 119/23/34
f 119/23/34 120/24/34 121/25/35
f 119/23/34 121/25/35 122/26/35
f 123/1/36 124/1/1 125/1/37
f 126/2/38 127/1/39 128/3/3
f 127/1/39 129/4/3 128/3/3
f 125/1/37 124/1/1 130/1/40
f 128/3/3 129/4/3 131/5/4
f 128/3/3 131/5/4 132/6/4
f 130/1/40 124/1/1 133/1/41
f 132/6/4 131/5/4 134/7/5
f 131/5/4 135/8/5 134/7/5
f 133/1/41 124/1/1 136/1/42
f 134/7/5 135/8/5 137/9/6
f 134/7/5 137/9/6 138/10/6
f 136/1/42 124/1/1 139/1/43
f 138/10/6 137/9/6 140/11/7
f 137/9/6 141/12/7 140/11/7
f 139/1/43 124/1/1 142/1/44
f 140/11/7 141/12/7 143/13/8
f 140/11/7 143/13/8 144/14/45
f 142/1/44 124/1/1 145/1/46
f 144/14/45 143/13/8 146/15/9
f 143/13/8 147/16/9 146/15/9
f 145/1/46 124/1/1 148/1/47
f 146/15/9 147/16/9 149/17/10
f 146/15/9 149/17/10 150/18/10
f 148/1/47 124/1/1 151/1/48
f 150/18/10 149/17/10 152/19/11
f 149/17/10 153/20/11 152/19/11
f 151/1/48 124/1/1 154/1/49
f 152/19/11 153/20/11 155/21/12
f 152/19/11 155/21/12 156/22/12
f 154/1/49 124/1/1 157/1/50
f 156/22/12 155/21/12 158/23/13
f 155/21/12 159/24/13 158/23/13
f 157/1/50 124/1/1 123/1/36
f 158/23/13 159/24/13 160/25/14
f 158/23/13 160/25/14 161/26/51
f 162/1/52 163/1/53 127/1/39
f 162/1/52 127/1/39 164/1/54
f 165/1/55 166/1/56 163/1/53
f 165/1/55 163/1/53 162/1/52
f 167/1/57 168/1/58 166/1/56
f 167/1/57 166/1/56 165/1/55
f 169/1/59 170/1/60 168/1/58
f 169/1/59 168/1/58 167/1/57
f 171/1/61 172/1/62 170/1/60
f 171/1/61 170/1/60 169/1/59
f 173/1/63 174/1/64 172/1/62
f 173/1/63 172/1/62 171/1/61
f 175/1/65 176/1/66 174/1/64
f 175/1/65 174/1/64 173/1/63
f 177/1/67 178/1/68 176/1/66
f 177/1/67 176/1/66 175/1/65
f 179/1/69 180/1/70 178/1/68
f 179/1/69 178/1/68 177/1/67
f 181/1/71 182/1/72 180/1/70
f 181/1/71 180/1/70 179/1/69
f 183/1/73 184/1/74 182/1/72
f 183/1/73 182/1/72 181/1/71
f 164/1/54 127/1/39 184/1/74
f 164/1/54 184/1/74 183/1/73
f 125/1/37 162/1/52 164/1/54
f 125/1/37 164/1/54 123/1/36
f 130/1/40 165/1/55 162/1/52
f 130/1/40 162/1/52 125/1/37
f 133/1/41 167/1/57 165/1/55
f 133/1/41 165/1/55 130/1/40
f 136/1/42 169/1/59 167/1/57
f 136/1/42 167/1/57 133/1/41
f 139/1/43 171/1/61 169/1/59
f 139/1/43 169/1/59 136/1/42
f 142/1/44 173/1/63 171/1/61
f 142/1/44 171/1/61 139/1/43
f 145/1/46 175/1/65 173/1/63
f 145/1/46 173/1/63 142/1/44
f 148/1/47 177/1/67 175/1/65
f 148/1/47 175/1/65 145/1/46
f 151/1/48 179/1/69 177/1/67
f 151/1/48 177/1/67 148/1/47
f 154/1/49 181/1/71 179/1/69
f 154/1/49 179/1/69 151/1/48
f 157/1/50 183/1/73 181/1/71
f 157/1/50 181/1/71 154/1/49
f 123/1/36 164/1/54 183/1/73
f 123/1/36 183/1/73 157/1/50
s 2
f 185/1/75 186/2/76 187/25/76
f 186/2/76 188/26/77 187/25/76
s 1
f 189/1/78 190/2/79 191/25/79
s 2
f 190/2/80 188/26/77 191/25/80
f 192/1/81 193/2/81 194/25/81
f 193/2/81 195/26/81 194/25/81
s 1
f 196/1/82 186/2/82 197/25/82
s 3
f 196/1/1 198/2/1 191/25/1
f 198/2/1 199/26/1 191/25/1
s 1
f 185/1/83 200/1/83 201/1/83
s 2
f 202/1/1 189/1/84 200/1/1
f 202/1/1 200/1/1 185/1/75
f 203/1/11 204/1/11 189/1/84
s 1
f 203/1/85 189/1/78 202/1/85
# 122 triangles in group

g LockTine
f 205/1/86 206/2/86 207/25/86
f 206/2/86 208/26/86 207/25/86
s 3
f 209/1/27 210/2/27 211/25/27
f 210/2/27 212/26/27 211/25/27
s 1
f 213/1/87 214/2/87 215/25/87
f 214/2/87 216/26/87 215/25/87
s 3
f 217/1/8 218/2/8 219/25/8
f 218/2/8 220/26/8 219/25/8
s 2
f 217/1/88 221/2/88 211/25/88
f 221/2/88 222/26/88 211/25/88
f 223/1/28 218/2/28 224/25/28
f 218/2/28 212/26/28 224/25/28
s 1
f 225/25/89 226/2/89 227/1/89
f 225/25/89 228/26/89 226/2/89
s 3
f 229/25/27 230/2/27 231/1/27
f 229/25/27 232/26/27 230/2/27
s 1
f 233/25/90 234/2/90 235/1/90
f 233/25/90 236/26/90 234/2/90
s 3
f 237/25/8 238/2/8 239/1/8
f 237/25/8 240/26/8 238/2/8
s 2
f 229/25/91 241/2/91 239/1/91
f 229/25/91 242/26/91 241/2/91
f 243/25/28 238/2/28 244/1/28
f 243/25/28 232/26/28 238/2/28
# 24 triangles in group

# 230 triangles total

